<svg width="39" height="42" viewBox="0 0 39 42" fill="none" xmlns="http://www.w3.org/2000/svg">
<path d="M28.8332 19.25H36.4998V30.75C36.4998 31.2583 36.2979 31.7458 35.9385 32.1053C35.579 32.4647 35.0915 32.6667 34.5832 32.6667H28.8332C28.3248 32.6667 27.8373 32.4647 27.4779 32.1053C27.1184 31.7458 26.9165 31.2583 26.9165 30.75V21.1667C26.9165 20.6583 27.1184 20.1708 27.4779 19.8114C27.8373 19.4519 28.3248 19.25 28.8332 19.25Z" stroke="#6C91F6" stroke-width="3.83333" stroke-linecap="round" stroke-linejoin="round"/>
<path d="M9.66667 19.25H2V30.75C2 31.2583 2.20193 31.7458 2.56138 32.1053C2.92082 32.4647 3.40834 32.6667 3.91667 32.6667H9.66667C10.175 32.6667 10.6625 32.4647 11.022 32.1053C11.3814 31.7458 11.5833 31.2583 11.5833 30.75V21.1667C11.5833 20.6583 11.3814 20.1708 11.022 19.8114C10.6625 19.4519 10.175 19.25 9.66667 19.25Z" stroke="#6C91F6" stroke-width="3.83333" stroke-linecap="round" stroke-linejoin="round"/>
<path d="M2 19.25C2 14.675 3.81741 10.2874 7.05241 7.05241C10.2874 3.81741 14.675 2 19.25 2C23.825 2 28.2126 3.81741 31.4476 7.05241C34.6826 10.2874 36.5 14.675 36.5 19.25" stroke="#6C91F6" stroke-width="3.83333" stroke-linecap="round" stroke-linejoin="round"/>
<path d="M36.5352 28C36.9655 38.4372 34.3348 40 27 40" stroke="#6C91F6" stroke-width="3.83" stroke-linecap="round" stroke-linejoin="round"/>
</svg>
