<svg width="658" height="541" viewBox="0 0 658 541" fill="none" xmlns="http://www.w3.org/2000/svg">
<path d="M591.875 503.479H548.304V503.808H591.875V503.479Z" fill="#EBEBEB"/>
<path d="M435.743 507.057H424.311V507.386H435.743V507.057Z" fill="#EBEBEB"/>
<path d="M546.988 491.271H521.742V491.599H546.988V491.271Z" fill="#EBEBEB"/>
<path d="M125.834 493.481H69.0148V493.81H125.834V493.481Z" fill="#EBEBEB"/>
<path d="M145.884 493.481H137.556V493.81H145.884V493.481Z" fill="#EBEBEB"/>
<path d="M296.201 499.033H172.958V499.362H296.201V499.033Z" fill="#EBEBEB"/>
<path d="M657.785 482.312H0V482.64H657.785V482.312Z" fill="#EBEBEB"/>
<path d="M194.218 276.503H71.7644V483.772H194.218V276.503Z" fill="#DFE2EB"/>
<path d="M199.769 276.503H71.7644V291.961H199.769V276.503Z" fill="#DFE2EB"/>
<path d="M157.526 265.835H113.389L106.456 223.224H164.473L157.526 265.835Z" fill="#EBEBEB"/>
<path d="M164.302 224.499L148.962 224.539L146.331 265.768L157.526 265.821L164.302 224.499Z" fill="#DFE2EB"/>
<path d="M166.88 191.347H104.825C98.5253 191.347 93.4187 196.454 93.4187 202.753V213.094C93.4187 219.393 98.5253 224.5 104.825 224.5H166.88C173.18 224.5 178.286 219.393 178.286 213.094V202.753C178.286 196.454 173.18 191.347 166.88 191.347Z" fill="#EBEBEB"/>
<path d="M178.523 204.608V211.186C178.523 218.514 172.616 224.342 163.973 224.342H147.462C156.119 224.342 160.618 218.474 160.618 211.186V204.608C160.632 202.868 160.302 201.142 159.648 199.529C158.994 197.916 158.029 196.449 156.807 195.209C155.585 193.97 154.131 192.984 152.527 192.308C150.924 191.632 149.203 191.278 147.462 191.268H165.301C168.822 191.289 172.191 192.705 174.669 195.205C177.148 197.706 178.533 201.087 178.523 204.608Z" fill="#DFE2EB"/>
<path d="M143.384 235.366H127.466V244.483H143.384V235.366Z" fill="#DFE2EB"/>
<path d="M136.754 235.366H127.466V244.483H136.754V235.366Z" fill="#F5F5F5"/>
<path d="M177.891 271.295C177.891 272.013 177.75 272.724 177.475 273.387C177.199 274.05 176.796 274.653 176.288 275.16C175.779 275.667 175.176 276.069 174.512 276.342C173.848 276.616 173.137 276.756 172.419 276.754H98.4967C97.0452 276.754 95.6532 276.178 94.6269 275.151C93.6005 274.125 93.0239 272.733 93.0239 271.281C93.0239 269.83 93.6005 268.438 94.6269 267.412C95.6532 266.385 97.0452 265.809 98.4967 265.809H172.419C173.871 265.812 175.263 266.392 176.289 267.42C177.315 268.448 177.891 269.842 177.891 271.295Z" fill="#DFE2EB"/>
<path d="M149.094 271.295C149.094 272.013 148.952 272.724 148.677 273.387C148.402 274.05 147.998 274.653 147.49 275.16C146.981 275.667 146.378 276.069 145.714 276.342C145.05 276.616 144.339 276.756 143.621 276.754H98.4967C97.0452 276.754 95.6532 276.178 94.6269 275.151C93.6005 274.125 93.0239 272.733 93.0239 271.281C93.0239 269.83 93.6005 268.438 94.6269 267.412C95.6532 266.385 97.0452 265.809 98.4967 265.809H143.621C145.073 265.812 146.465 266.392 147.491 267.42C148.517 268.448 149.094 269.842 149.094 271.295Z" fill="#EBEBEB"/>
<path d="M143.752 207.989C143.749 210.186 142.875 212.292 141.321 213.846C139.767 215.399 137.661 216.274 135.464 216.277C134.677 216.277 133.893 216.166 133.136 215.948C131.412 215.448 129.898 214.401 128.82 212.966C127.742 211.53 127.159 209.784 127.159 207.989C127.159 206.194 127.742 204.448 128.82 203.012C129.898 201.577 131.412 200.53 133.136 200.03C133.891 199.806 134.676 199.695 135.464 199.701C137.661 199.704 139.767 200.579 141.321 202.132C142.875 203.686 143.749 205.792 143.752 207.989Z" fill="#DFE2EB"/>
<path d="M139.108 207.989C139.107 209.783 138.524 211.528 137.447 212.963C136.37 214.398 134.858 215.445 133.136 215.949C131.412 215.448 129.898 214.401 128.82 212.966C127.742 211.531 127.159 209.784 127.159 207.989C127.159 206.195 127.742 204.448 128.82 203.013C129.898 201.578 131.412 200.531 133.136 200.03C134.859 200.532 136.372 201.579 137.45 203.014C138.527 204.449 139.109 206.195 139.108 207.989Z" fill="#FAFAFA"/>
<path d="M148.528 224.592H122.006V235.195H148.528V224.592Z" fill="#DFE2EB"/>
<path d="M140.411 224.592H122.006V235.195H140.411V224.592Z" fill="#F5F5F5"/>
<path d="M153.369 211.436C155.294 211.436 156.855 209.875 156.855 207.95C156.855 206.024 155.294 204.463 153.369 204.463C151.444 204.463 149.883 206.024 149.883 207.95C149.883 209.875 151.444 211.436 153.369 211.436Z" fill="#DFE2EB"/>
<path d="M165.301 211.436C167.227 211.436 168.788 209.875 168.788 207.95C168.788 206.024 167.227 204.463 165.301 204.463C163.376 204.463 161.815 206.024 161.815 207.95C161.815 209.875 163.376 211.436 165.301 211.436Z" fill="#DFE2EB"/>
<path d="M106.456 211.436C108.381 211.436 109.942 209.875 109.942 207.95C109.942 206.024 108.381 204.463 106.456 204.463C104.531 204.463 102.97 206.024 102.97 207.95C102.97 209.875 104.531 211.436 106.456 211.436Z" fill="#DFE2EB"/>
<path d="M156.763 238.497H143.502V242.641H156.763V238.497Z" fill="#FAFAFA"/>
<path d="M148.554 225.788H122.111C121.804 225.756 121.519 225.612 121.311 225.382C121.104 225.153 120.99 224.854 120.99 224.545C120.99 224.236 121.104 223.937 121.311 223.708C121.519 223.478 121.804 223.333 122.111 223.302H148.554C148.862 223.333 149.147 223.478 149.354 223.708C149.561 223.937 149.676 224.236 149.676 224.545C149.676 224.854 149.561 225.153 149.354 225.382C149.147 225.612 148.862 225.756 148.554 225.788Z" fill="#E0E0E0"/>
<path d="M153.369 212.672C152.435 212.672 151.522 212.395 150.745 211.876C149.969 211.357 149.363 210.62 149.006 209.757C148.648 208.894 148.555 207.944 148.737 207.028C148.919 206.112 149.369 205.27 150.03 204.61C150.69 203.949 151.532 203.5 152.448 203.317C153.364 203.135 154.314 203.229 155.177 203.586C156.04 203.944 156.777 204.549 157.296 205.326C157.815 206.102 158.092 207.015 158.092 207.949C158.092 209.202 157.595 210.403 156.709 211.289C155.823 212.175 154.622 212.672 153.369 212.672ZM153.369 205.713C152.927 205.713 152.495 205.844 152.127 206.09C151.759 206.336 151.472 206.685 151.303 207.094C151.134 207.502 151.089 207.952 151.176 208.386C151.262 208.82 151.475 209.218 151.788 209.531C152.101 209.844 152.499 210.057 152.933 210.143C153.367 210.229 153.816 210.185 154.225 210.016C154.634 209.846 154.983 209.56 155.229 209.192C155.475 208.824 155.606 208.392 155.606 207.949C155.606 207.356 155.37 206.787 154.951 206.368C154.531 205.949 153.962 205.713 153.369 205.713Z" fill="#FAFAFA"/>
<path d="M165.302 212.672C164.367 212.672 163.454 212.395 162.678 211.876C161.901 211.357 161.296 210.62 160.938 209.757C160.581 208.894 160.487 207.944 160.669 207.028C160.852 206.112 161.301 205.27 161.962 204.61C162.622 203.949 163.464 203.5 164.38 203.317C165.296 203.135 166.246 203.229 167.109 203.586C167.972 203.944 168.71 204.549 169.228 205.326C169.747 206.102 170.024 207.015 170.024 207.949C170.024 209.202 169.527 210.403 168.641 211.289C167.755 212.175 166.554 212.672 165.302 212.672ZM165.302 205.713C164.859 205.713 164.427 205.844 164.059 206.09C163.691 206.336 163.405 206.685 163.235 207.094C163.066 207.502 163.022 207.952 163.108 208.386C163.194 208.82 163.407 209.218 163.72 209.531C164.033 209.844 164.431 210.057 164.865 210.143C165.299 210.229 165.749 210.185 166.157 210.016C166.566 209.846 166.915 209.56 167.161 209.192C167.407 208.824 167.538 208.392 167.538 207.949C167.538 207.356 167.302 206.787 166.883 206.368C166.464 205.949 165.895 205.713 165.302 205.713Z" fill="#FAFAFA"/>
<path d="M106.456 212.672C105.522 212.672 104.609 212.395 103.832 211.876C103.055 211.357 102.45 210.62 102.093 209.757C101.735 208.894 101.642 207.944 101.824 207.028C102.006 206.112 102.456 205.27 103.116 204.61C103.777 203.949 104.618 203.5 105.535 203.317C106.451 203.135 107.4 203.229 108.263 203.586C109.126 203.944 109.864 204.549 110.383 205.326C110.902 206.102 111.179 207.015 111.179 207.949C111.179 208.57 111.057 209.184 110.819 209.757C110.582 210.33 110.234 210.851 109.796 211.289C109.357 211.728 108.836 212.076 108.263 212.313C107.69 212.55 107.076 212.672 106.456 212.672ZM106.456 205.713C106.014 205.713 105.581 205.844 105.213 206.09C104.846 206.336 104.559 206.685 104.39 207.094C104.22 207.502 104.176 207.952 104.262 208.386C104.349 208.82 104.562 209.218 104.875 209.531C105.187 209.844 105.586 210.057 106.02 210.143C106.453 210.229 106.903 210.185 107.312 210.016C107.72 209.846 108.07 209.56 108.315 209.192C108.561 208.824 108.692 208.392 108.692 207.949C108.692 207.356 108.457 206.787 108.037 206.368C107.618 205.949 107.049 205.713 106.456 205.713Z" fill="#FAFAFA"/>
<path d="M135.346 205.305C135.022 205.289 134.715 205.154 134.484 204.926C134.253 204.698 134.115 204.392 134.096 204.068V199.924C134.078 199.75 134.097 199.574 134.151 199.408C134.206 199.242 134.294 199.089 134.411 198.959C134.529 198.829 134.672 198.725 134.832 198.654C134.991 198.583 135.164 198.546 135.339 198.546C135.514 198.546 135.687 198.583 135.847 198.654C136.007 198.725 136.15 198.829 136.267 198.959C136.384 199.089 136.473 199.242 136.527 199.408C136.582 199.574 136.601 199.75 136.583 199.924V204.068C136.583 204.396 136.452 204.711 136.22 204.943C135.988 205.175 135.674 205.305 135.346 205.305Z" fill="#E6E6E6"/>
<path d="M182.338 475.484H80.355V302.079H182.338V475.484ZM81.6706 474.168H181.022V303.394H81.6706V474.168Z" fill="#E6E6E6"/>
<path d="M182.996 476.142H79.6973V301.421H182.996V476.142ZM81.0128 474.826H181.68H81.0128ZM82.3284 473.511H180.365V304.052H82.3284V473.511Z" fill="#FAFAFA"/>
<path d="M94.9973 368.081H87.1171V392.195H94.9973V368.081Z" fill="#DFE2EB"/>
<path d="M554.066 446.449L552.987 446.581C552.987 446.041 546.409 391.472 559.854 346.887C573.221 302.565 564.012 274.32 563.919 274.044L564.946 273.702C565.038 273.978 574.352 302.552 560.88 347.189C547.501 391.564 553.987 445.91 554.066 446.449Z" fill="#DFE2EB"/>
<path d="M565.827 280.122C563.491 277.332 560.316 275.371 556.776 274.53L557.013 273.478C560.789 274.367 564.176 276.453 566.669 279.424L565.827 280.122Z" fill="#DFE2EB"/>
<path d="M570.439 284.679L567.347 286.426L567.877 287.366L570.97 285.619L570.439 284.679Z" fill="#DFE2EB"/>
<path d="M564.669 309.788C561.963 303.648 556.97 298.806 550.75 296.29L551.145 295.29C557.619 297.918 562.811 302.968 565.616 309.367L564.669 309.788Z" fill="#DFE2EB"/>
<path d="M561.749 343.887H560.67C560.636 341.692 560.116 339.532 559.147 337.562C558.177 335.592 556.784 333.861 555.066 332.494L555.737 331.639C557.582 333.109 559.078 334.97 560.118 337.088C561.157 339.206 561.714 341.528 561.749 343.887Z" fill="#DFE2EB"/>
<path d="M559.354 352.597L558.341 352.202C558.899 350.823 559.733 349.572 560.792 348.527C561.851 347.482 563.112 346.664 564.498 346.124L564.88 347.137C563.634 347.62 562.501 348.354 561.551 349.294C560.6 350.233 559.853 351.357 559.354 352.597Z" fill="#DFE2EB"/>
<path d="M552.329 407.903L551.5 407.219C552.816 405.627 553.816 399.575 554.355 396.326C554.473 395.55 554.592 394.892 554.671 394.405L555.736 394.616C555.657 395.076 555.539 395.734 555.421 396.497C554.618 401.352 553.724 406.232 552.329 407.903Z" fill="#DFE2EB"/>
<path d="M551.711 425.216C550.963 423.087 549.559 421.249 547.701 419.968C545.843 418.687 543.627 418.028 541.371 418.086V417.007C543.863 416.953 546.308 417.687 548.358 419.105C550.409 420.522 551.959 422.55 552.79 424.901L551.711 425.216Z" fill="#DFE2EB"/>
<path d="M560.002 436.591L552.367 445.136L553.172 445.855L560.806 437.31L560.002 436.591Z" fill="#DFE2EB"/>
<path d="M565.38 380.907C567.103 386.512 555.039 397.168 555.039 397.168C555.039 397.168 539.081 395.168 537.345 389.564C535.608 383.959 539.66 374.816 547.396 372.461C555.131 370.106 563.643 375.316 565.38 380.907Z" fill="#F0F0F0"/>
<path d="M578.759 312.985C577.233 318.931 565.814 323.154 565.814 323.154C565.814 323.154 557.841 313.945 559.381 307.999C560.92 302.052 567.274 295.501 572.536 296.882C577.799 298.264 580.285 307.038 578.759 312.985Z" fill="#EBEBEB"/>
<path d="M532.924 401.812C540.094 404.614 544.501 417.296 544.501 417.296C544.501 417.296 532.661 423.663 525.505 420.874C518.348 418.085 510.744 410.205 512.796 404.943C514.849 399.681 525.755 399.023 532.924 401.812Z" fill="#F5F5F5"/>
<path d="M548.593 332.021C550.045 333.24 551.708 334.181 553.5 334.797C554.407 335.086 555.376 335.124 556.302 334.906C557.229 334.688 558.079 334.223 558.763 333.56C560.302 331.797 559.894 329.061 558.92 326.982C557.013 322.759 549.935 315.589 544.515 317.642C536.753 320.562 545.16 329.429 548.593 332.021Z" fill="#E6E6E6"/>
<path d="M564.696 342.782C563.669 344.098 562.578 345.663 563.13 347.202C563.452 347.856 563.982 348.385 564.637 348.706C565.291 349.028 566.033 349.123 566.748 348.978C568.167 348.646 569.494 347.998 570.629 347.084C573.392 345.163 579.062 341.125 575.444 337.362C571.826 333.599 566.853 340.098 564.696 342.782Z" fill="#EBEBEB"/>
<path d="M541.542 289.133C540.937 289.157 540.357 289.372 539.883 289.748C539.41 290.124 539.069 290.642 538.91 291.225C538.674 292.54 539.805 293.856 540.91 294.659C543.66 296.777 551.921 302.552 553.763 296.974C555.552 291.764 545.199 288.725 541.542 289.133Z" fill="#DFE2EB"/>
<path d="M556.763 271.005C555.066 271.162 553.369 270.544 551.658 270.649C549.948 270.755 548.054 272.136 548.435 273.807C548.817 275.477 550.698 275.859 552.277 275.964C554.973 276.13 557.68 275.944 560.328 275.412C560.957 275.353 561.541 275.056 561.959 274.583C562.657 273.57 561.551 272.202 560.381 271.847C559.166 271.686 557.971 271.4 556.815 270.991L556.763 271.005Z" fill="#E6E6E6"/>
<path d="M573.418 282.727C575.128 282.727 576.772 282.042 578.496 282.042C580.219 282.042 582.179 283.279 581.916 284.976C581.653 286.673 579.785 287.173 578.22 287.384C575.538 287.732 572.823 287.732 570.142 287.384C569.509 287.364 568.908 287.106 568.458 286.66C567.708 285.7 568.708 284.266 569.866 283.832C571.068 283.593 572.241 283.227 573.365 282.74L573.418 282.727Z" fill="#F0F0F0"/>
<path d="M571.734 408.758C572.117 408.355 572.629 408.099 573.181 408.034C573.543 408.075 573.882 408.234 574.146 408.486C574.409 408.738 574.583 409.069 574.641 409.429C574.72 410.16 574.626 410.899 574.365 411.586C573.207 415.467 560.183 443.568 557.184 438.516C555.421 435.53 559.815 425.663 561.051 422.861C563.537 417.435 567.184 412.62 571.734 408.758Z" fill="#F0F0F0"/>
<path d="M563.946 272.07C564.972 269.755 566.09 267.321 568.142 265.834C570.195 264.348 573.484 264.229 574.983 266.282C576.654 268.571 574.983 272.057 572.418 273.28C569.853 274.504 566.866 274.136 564.051 273.741C564.051 273.32 564.051 272.912 563.985 272.425L563.946 272.07Z" fill="#E6E6E6"/>
<path d="M572.905 483.641C559.092 486.403 544.869 486.403 531.056 483.641L520.124 435.583H583.837L572.905 483.641Z" fill="#E6E6E6"/>
<path d="M531.617 165.381C539.18 118.786 507.539 74.8811 460.943 67.3176C414.348 59.7541 370.444 91.3957 362.88 137.991C355.317 184.586 386.958 228.491 433.554 236.054C480.149 243.618 524.053 211.976 531.617 165.381Z" fill="#F0F3FA"/>
<path d="M447.465 239.05C424.287 239.05 402.058 229.842 385.669 213.453C369.279 197.064 360.072 174.835 360.072 151.657C360.072 128.478 369.279 106.25 385.669 89.8601C402.058 73.4707 424.287 64.2632 447.465 64.2632V68.1047C425.566 68.4933 404.695 77.4656 389.346 93.0898C373.996 108.714 365.396 129.741 365.396 151.643C365.396 173.546 373.996 194.573 389.346 210.197C404.695 225.821 425.566 234.793 447.465 235.182V239.05Z" fill="#DFE2EB"/>
<path d="M447.465 239.05V235.195C458.56 235.392 469.584 233.377 479.891 229.267C490.199 225.157 499.585 219.035 507.501 211.259C515.417 203.482 521.705 194.206 525.997 183.973C530.289 173.739 532.5 162.754 532.5 151.657C532.5 140.56 530.289 129.574 525.997 119.34C521.705 109.107 515.417 99.8314 507.501 92.0546C499.585 84.2778 490.199 78.1558 479.891 74.046C469.584 69.9362 458.56 67.9209 447.465 68.1178V64.2632C470.643 64.2632 492.872 73.4707 509.261 89.8601C525.651 106.25 534.858 128.478 534.858 151.657C534.858 174.835 525.651 197.064 509.261 213.453C492.872 229.842 470.643 239.05 447.465 239.05Z" fill="#DFE2EB"/>
<path d="M492.129 151.669H488.287C488.287 123.345 473.908 85.4567 446.439 67.8281L448.504 64.5918C477.144 82.9572 492.129 122.306 492.129 151.669Z" fill="#DFE2EB"/>
<path d="M448.504 236.155L446.439 232.906C473.908 215.29 488.287 177.389 488.287 149.064H492.129C492.129 178.428 477.144 217.777 448.504 236.155Z" fill="#DFE2EB"/>
<path d="M406.669 151.656H402.814C402.814 122.28 417.799 82.944 446.426 64.5654L448.504 67.8017C420.982 85.4304 406.669 123.332 406.669 151.656Z" fill="#DFE2EB"/>
<path d="M446.426 236.129C417.799 217.711 402.814 178.415 402.814 149.051H406.669C406.669 177.362 421.035 215.264 448.504 232.893L446.426 236.129Z" fill="#DFE2EB"/>
<path d="M449.386 66.1836H445.544V237.116H449.386V66.1836Z" fill="#DFE2EB"/>
<path d="M519.821 104.204H375.135V108.045H519.821V104.204Z" fill="#DFE2EB"/>
<path d="M532.898 151.183H362.045V155.024H532.898V151.183Z" fill="#DFE2EB"/>
<path d="M517.901 198.135H377.042V201.977H517.901V198.135Z" fill="#DFE2EB"/>
<path d="M328.892 541C469.767 541 583.968 534.332 583.968 526.108C583.968 517.883 469.767 511.215 328.892 511.215C188.018 511.215 73.8164 517.883 73.8164 526.108C73.8164 534.332 188.018 541 328.892 541Z" fill="#F5F5F5"/>
<path d="M304.226 524.857C304.226 526.136 304.605 527.385 305.315 528.447C306.025 529.51 307.035 530.338 308.216 530.826C309.397 531.315 310.697 531.442 311.95 531.192C313.203 530.941 314.354 530.325 315.257 529.42C316.16 528.516 316.774 527.363 317.022 526.11C317.27 524.856 317.14 523.556 316.649 522.376C316.158 521.196 315.328 520.188 314.264 519.48C313.2 518.772 311.95 518.395 310.672 518.398C309.824 518.398 308.985 518.565 308.202 518.89C307.419 519.215 306.708 519.691 306.109 520.291C305.51 520.891 305.036 521.603 304.713 522.387C304.389 523.17 304.224 524.01 304.226 524.857Z" fill="#263238"/>
<path d="M209.36 524.857C209.36 526.135 208.981 527.384 208.271 528.446C207.561 529.508 206.553 530.336 205.372 530.825C204.192 531.314 202.893 531.442 201.64 531.193C200.387 530.944 199.236 530.328 198.333 529.425C197.429 528.522 196.814 527.371 196.565 526.118C196.316 524.865 196.444 523.566 196.933 522.385C197.422 521.205 198.249 520.196 199.312 519.487C200.374 518.777 201.623 518.398 202.9 518.398C204.614 518.398 206.257 519.079 207.468 520.29C208.679 521.501 209.36 523.144 209.36 524.857Z" fill="#263238"/>
<path d="M265.311 522.791C265.311 524.069 264.932 525.318 264.222 526.38C263.513 527.442 262.504 528.27 261.324 528.759C260.143 529.248 258.844 529.376 257.591 529.127C256.338 528.878 255.188 528.262 254.284 527.359C253.381 526.456 252.766 525.305 252.516 524.052C252.267 522.799 252.395 521.5 252.884 520.32C253.373 519.139 254.201 518.13 255.263 517.421C256.325 516.711 257.574 516.332 258.852 516.332C259.7 516.332 260.54 516.499 261.324 516.824C262.107 517.148 262.819 517.624 263.419 518.224C264.019 518.824 264.495 519.536 264.819 520.32C265.144 521.103 265.311 521.943 265.311 522.791Z" fill="#263238"/>
<path d="M188.837 516.187C188.983 516.917 189.383 517.571 189.966 518.034C190.549 518.496 191.277 518.737 192.021 518.713L259.365 517.792L322.446 519.213C323.24 519.25 324.018 518.983 324.623 518.467C325.227 517.951 325.613 517.225 325.701 516.435C325.79 515.645 325.575 514.851 325.1 514.214C324.625 513.577 323.926 513.144 323.144 513.004L288.702 506.307C285.128 505.636 281.499 505.296 277.862 505.294H240.841C237.213 505.296 233.593 505.635 230.027 506.307L191.31 512.504C190.495 512.666 189.777 513.145 189.313 513.835C188.849 514.525 188.678 515.371 188.837 516.187Z" fill="#263238"/>
<path d="M270.823 449.106H247.919V515.056H270.823V449.106Z" fill="#263238"/>
<path d="M267.534 407.324H251.208V449.436H267.534V407.324Z" fill="#263238"/>
<path opacity="0.2" d="M267.534 415.126L251.195 419.243V407.324H267.534V415.126Z" fill="black"/>
<path d="M187.798 407.153V407.311H190.021C189.277 407.312 188.534 407.259 187.798 407.153Z" fill="#263238"/>
<path d="M360.927 391.182C358.473 387.028 354.98 383.585 350.79 381.193C346.601 378.8 341.86 377.541 337.036 377.54H277.98V241.102C277.986 240.997 277.986 240.891 277.98 240.786H278.256L275.783 224.223C275.371 221.426 274.351 218.754 272.793 216.394C271.236 214.035 269.181 212.046 266.771 210.567L247.722 198.938L237.75 169.837C237.138 168.069 235.991 166.535 234.468 165.449C232.945 164.362 231.122 163.776 229.251 163.772H205.413C203.333 163.773 201.318 164.497 199.713 165.819C198.108 167.141 197.011 168.98 196.612 171.021L191.35 198.069L181.009 208.883C177.826 212.2 175.928 216.542 175.655 221.131L174.681 237.352H174.852C174.737 238.225 174.68 239.104 174.681 239.983V391.892C174.679 395.591 176.007 399.167 178.422 401.969C180.837 404.77 184.178 406.61 187.837 407.153C188.569 407.258 189.308 407.311 190.047 407.311H351.731C353.621 407.323 355.481 406.831 357.118 405.887C358.756 404.943 360.113 403.58 361.05 401.939C361.988 400.297 362.472 398.436 362.452 396.545C362.433 394.655 361.911 392.804 360.94 391.182H360.927ZM195.388 223.802C195.27 224.723 195.152 225.644 195.033 226.538L192.139 227.275L184.246 229.301L184.798 221.105L184.969 218.737L195.967 208.791L196.454 212.304L196.678 213.988C196.678 213.988 196.02 218.75 195.388 223.802ZM236.25 226.433L235.158 213.422L236.092 211.133L236.276 210.712L237.263 208.226L242.42 210.712L250.774 217.829L252.629 227.933L236.25 226.433Z" fill="#407BFF"/>
<path opacity="0.3" d="M360.927 391.182C358.473 387.028 354.98 383.585 350.79 381.193C346.601 378.8 341.86 377.541 337.036 377.54H277.98V241.102C277.986 240.997 277.986 240.891 277.98 240.786H278.256L275.783 224.223C275.371 221.426 274.351 218.754 272.793 216.394C271.236 214.035 269.181 212.046 266.771 210.567L247.722 198.938L237.75 169.837C237.138 168.069 235.991 166.535 234.468 165.449C232.945 164.362 231.122 163.776 229.251 163.772H205.413C203.333 163.773 201.318 164.497 199.713 165.819C198.108 167.141 197.011 168.98 196.612 171.021L191.35 198.069L181.009 208.883C177.826 212.2 175.928 216.542 175.655 221.131L174.681 237.352H174.852C174.737 238.225 174.68 239.104 174.681 239.983V391.892C174.679 395.591 176.007 399.167 178.422 401.969C180.837 404.77 184.178 406.61 187.837 407.153C188.569 407.258 189.308 407.311 190.047 407.311H351.731C353.621 407.323 355.481 406.831 357.118 405.887C358.756 404.943 360.113 403.58 361.05 401.939C361.988 400.297 362.472 398.436 362.452 396.545C362.433 394.655 361.911 392.804 360.94 391.182H360.927ZM195.388 223.802C195.27 224.723 195.152 225.644 195.033 226.538L192.139 227.275L184.246 229.301L184.798 221.105L184.969 218.737L195.967 208.791L196.454 212.304L196.678 213.988C196.678 213.988 196.02 218.75 195.388 223.802ZM236.25 226.433L235.158 213.422L236.092 211.133L236.276 210.712L237.263 208.226L242.42 210.712L250.774 217.829L252.629 227.933L236.25 226.433Z" fill="#1C2436"/>
<path d="M262.404 352.859C280.23 345.334 320.289 350.294 338.944 355.49C340.815 356.064 342.833 355.933 344.614 355.121C346.396 354.309 347.818 352.872 348.613 351.083C350.073 347.4 346.982 336.059 342.285 334.744C320.512 328.666 277.638 330.797 256.773 339.585C252.274 341.48 250.314 346.255 252.234 349.715C253.25 351.393 254.847 352.641 256.721 353.22C258.596 353.8 260.618 353.671 262.404 352.859Z" fill="#407BFF"/>
<g opacity="0.3">
<path d="M262.404 352.859C280.23 345.334 320.289 350.294 338.944 355.49C340.815 356.064 342.833 355.933 344.614 355.121C346.396 354.309 347.818 352.872 348.613 351.083C350.073 347.4 346.982 336.059 342.285 334.744C320.512 328.666 277.638 330.797 256.773 339.585C252.274 341.48 250.314 346.255 252.234 349.715C253.25 351.393 254.847 352.641 256.721 353.22C258.596 353.8 260.618 353.671 262.404 352.859Z" fill="white"/>
</g>
<path d="M314.184 347.163H305.883V382.578H314.184V347.163Z" fill="#263238"/>
<path d="M314.184 347.163H305.883V407.324H314.184V347.163Z" fill="#263238"/>
<path d="M341.272 483.772L342.838 512.07L356.941 510.925L358.282 484.075L341.272 483.772Z" fill="#B55B52"/>
<path d="M359.401 510.478C359.336 510.466 359.276 510.436 359.227 510.392C359.178 510.348 359.143 510.291 359.124 510.228C359.109 510.163 359.115 510.095 359.141 510.033C359.167 509.972 359.212 509.92 359.269 509.886C359.466 509.754 364.11 506.794 366.426 507.32C366.855 507.413 367.232 507.668 367.478 508.031C367.64 508.223 367.735 508.462 367.752 508.713C367.769 508.964 367.705 509.213 367.57 509.425C367.044 510.188 365.294 510.583 363.624 510.662C362.213 510.727 360.8 510.665 359.401 510.478ZM360.427 509.991C362.992 510.188 366.439 509.991 367.005 509.083C367.084 508.965 367.163 508.768 366.899 508.373C366.828 508.258 366.732 508.161 366.618 508.088C366.504 508.015 366.376 507.969 366.242 507.952C366.036 507.925 365.829 507.925 365.623 507.952C363.794 508.312 362.047 509.003 360.466 509.991H360.427Z" fill="#407BFF"/>
<path d="M359.23 510.464C359.179 510.439 359.137 510.399 359.109 510.35C359.081 510.301 359.068 510.245 359.072 510.188C359.072 510.017 359.269 506.307 360.94 504.794C361.176 504.571 361.456 504.399 361.761 504.288C362.067 504.178 362.392 504.13 362.716 504.15C363.611 504.15 363.913 504.637 364.032 505.005C364.4 506.531 361.256 509.649 359.651 510.451C359.608 510.464 359.562 510.464 359.519 510.451C359.477 510.482 359.428 510.499 359.376 510.501C359.325 510.504 359.274 510.491 359.23 510.464ZM362.532 504.781C362.119 504.793 361.726 504.957 361.427 505.242C360.462 506.466 359.901 507.96 359.822 509.517C361.466 508.425 363.505 506.005 363.374 505.084C363.374 505.005 363.295 504.768 362.716 504.755H362.532V504.781Z" fill="#407BFF"/>
<path d="M357.914 508.636L342.995 509.347C342.721 509.36 342.46 509.467 342.255 509.648C342.049 509.83 341.911 510.076 341.864 510.346L339.746 522.568C339.654 523.09 339.773 523.626 340.076 524.06C340.38 524.494 340.843 524.79 341.364 524.883C341.504 524.903 341.645 524.903 341.785 524.883C347.166 524.541 351.928 524.015 358.624 523.699C366.518 523.318 364.571 524.357 373.872 524.041C379.476 523.857 380.187 517.464 377.819 517.24C366.886 516.398 365.597 513.175 361.216 509.478C360.254 508.805 359.08 508.506 357.914 508.636Z" fill="#263238"/>
<path opacity="0.1" d="M342.364 501.887L357.362 500.874L358.282 482.496L341.272 482.193L342.364 501.887Z" fill="black"/>
<path opacity="0.4" d="M336.786 377.631C336.786 377.881 336.904 378.145 336.97 378.394C336.684 374.905 336.148 371.44 335.365 368.028C330.537 349.255 280.295 346.124 259.746 345.663L235.04 348.373C235.04 348.373 232.738 368.107 238.618 380.684C244.499 393.26 336.786 377.631 336.786 377.631Z" fill="black"/>
<path d="M307.607 490.521L308.883 519.279L322.828 518.766L324.472 488.311L307.607 490.521Z" fill="#B55B52"/>
<path d="M325.025 514.872C324.958 514.865 324.896 514.837 324.846 514.792C324.796 514.747 324.762 514.688 324.749 514.622C324.731 514.56 324.733 514.494 324.754 514.432C324.775 514.371 324.815 514.318 324.867 514.28C325.064 514.135 329.59 511.017 331.918 511.452C332.355 511.518 332.748 511.754 333.01 512.109C333.176 512.301 333.278 512.539 333.304 512.79C333.33 513.042 333.278 513.296 333.155 513.517C332.655 514.293 330.932 514.754 329.208 514.898C327.816 515.013 326.416 515.004 325.025 514.872ZM326.038 514.346C328.603 514.438 332.037 514.122 332.616 513.188C332.708 513.07 332.774 512.872 332.497 512.491C332.424 512.376 332.325 512.28 332.209 512.209C332.093 512.139 331.962 512.096 331.826 512.083C331.617 512.057 331.405 512.057 331.195 512.083C329.349 512.506 327.599 513.273 326.038 514.346Z" fill="#407BFF"/>
<path d="M324.854 514.872C324.803 514.843 324.76 514.801 324.73 514.75C324.7 514.699 324.684 514.642 324.683 514.583C324.683 514.412 324.683 510.702 326.354 509.123C326.583 508.895 326.857 508.716 327.157 508.596C327.458 508.477 327.78 508.419 328.103 508.426C328.998 508.426 329.314 508.86 329.419 509.228C329.84 510.741 326.788 513.978 325.248 514.833C325.228 514.842 325.205 514.847 325.183 514.847C325.16 514.847 325.138 514.842 325.117 514.833C325.078 514.857 325.035 514.873 324.989 514.88C324.944 514.887 324.898 514.884 324.854 514.872ZM327.932 509.057C327.524 509.087 327.14 509.265 326.853 509.557C325.942 510.819 325.437 512.329 325.406 513.886C327.011 512.741 328.958 510.255 328.8 509.334C328.8 509.255 328.708 509.018 328.116 509.018H327.932V509.057Z" fill="#407BFF"/>
<path d="M323.472 513.083L308.593 514.399C308.321 514.418 308.063 514.53 307.864 514.717C307.665 514.904 307.537 515.154 307.501 515.425L305.844 527.765C305.807 528.025 305.821 528.29 305.886 528.544C305.951 528.799 306.066 529.038 306.224 529.248C306.381 529.458 306.579 529.635 306.805 529.769C307.031 529.903 307.281 529.991 307.541 530.028C307.681 530.047 307.822 530.047 307.962 530.028C313.329 529.475 318.065 528.778 324.749 528.212C332.642 527.541 330.721 528.659 339.996 527.988C345.587 527.594 346.061 521.147 343.666 521.042C332.721 520.608 331.313 517.438 326.801 513.912C325.831 513.236 324.646 512.941 323.472 513.083Z" fill="#263238"/>
<path opacity="0.1" d="M323.499 505.597L324.288 491.086L307.686 491.455L308.37 506.65L323.499 505.597Z" fill="black"/>
<path d="M274.112 344.005C274.112 344.005 361.769 337.296 367.847 360.95C373.925 384.604 360.466 496.085 360.466 496.085L338.786 497.914C338.786 497.914 335.944 432.136 335.536 377.724C335.536 377.724 243.262 393.26 237.368 380.736C231.475 368.212 233.79 348.426 233.79 348.426L274.112 344.005Z" fill="#407BFF"/>
<path d="M274.112 344.005C274.112 344.005 361.769 337.296 367.847 360.95C373.925 384.604 360.466 496.085 360.466 496.085L338.786 497.914C338.786 497.914 335.944 432.136 335.536 377.724C335.536 377.724 243.262 393.26 237.368 380.736C231.475 368.212 233.79 348.426 233.79 348.426L274.112 344.005Z" fill="#263238"/>
<path opacity="0.1" d="M274.112 344.005C274.112 344.005 361.769 337.296 367.847 360.95C373.925 384.604 360.466 496.085 360.466 496.085L338.786 497.914C338.786 497.914 335.944 432.136 335.536 377.724C335.536 377.724 243.262 393.26 237.368 380.736C231.475 368.212 233.79 348.426 233.79 348.426L274.112 344.005Z" fill="black"/>
<path d="M251.971 347.452C251.971 347.452 340.338 344.019 341.548 368.409C342.496 387.472 326.393 500.716 326.393 500.716L306.186 502.282C306.186 502.282 302.489 434.241 305.015 387.827C305.015 387.827 228.712 396.576 215.332 385.841C202.519 375.606 212.491 347.347 212.491 347.347L251.971 347.452Z" fill="#263238"/>
<path d="M287.11 288.515C298.075 298.09 310.667 305.624 324.288 310.761L326.485 311.59L327.643 305.617L300.91 278.529C300.91 278.529 278.73 236.8 265.995 239.128C250.879 241.891 287.11 288.515 287.11 288.515Z" fill="#407BFF"/>
<g opacity="0.1">
<path d="M287.11 288.515C298.075 298.09 310.667 305.624 324.288 310.761L326.485 311.59L327.643 305.617L300.91 278.529C300.91 278.529 278.73 236.8 265.995 239.128C250.879 241.891 287.11 288.515 287.11 288.515Z" fill="white"/>
</g>
<path d="M326.485 311.616L327.643 305.643L343.666 303.012C343.666 303.012 359.322 310.761 355.756 312.458H338.457L326.485 311.616Z" fill="#B55B52"/>
<path d="M281.532 345.716C268.626 349.129 255.259 350.461 241.933 349.662L213.228 347.965C212.53 342.071 208.123 329.126 202.058 295.777C200.545 278.977 195.836 273.649 201.269 248.258C201.264 248.21 201.264 248.161 201.269 248.113C201.099 247.061 201.142 245.985 201.393 244.949C201.645 243.912 202.101 242.937 202.734 242.079C203.368 241.222 204.166 240.499 205.082 239.954C205.999 239.409 207.014 239.052 208.07 238.904H208.228C212.464 238.194 217.793 237.431 223.042 237.036C233.034 236.197 243.064 235.889 253.089 236.115C256.427 236.363 259.748 236.802 263.035 237.431C265.261 237.747 267.362 238.653 269.12 240.055C270.878 241.457 272.229 243.303 273.033 245.403C277.73 258.835 279.348 291.027 281.532 345.716Z" fill="#6C91F6"/>
<path d="M242.578 244.535C227.725 245.85 222.029 237.036 222.029 237.036C228.37 230.314 225.318 212.764 222.805 203.147L231.04 209.567L242.262 218.329C241.994 219.804 241.805 221.293 241.696 222.788C241.604 223.861 241.604 224.939 241.696 226.012V226.196C242.196 230.682 244.683 234.418 251.734 235.865C251.787 235.905 255.221 243.403 242.578 244.535Z" fill="#B55B52"/>
<path d="M225.778 218.158C223.819 215.853 221.339 214.049 218.542 212.896C216.201 211.949 213.688 211.462 211.346 210.528C208.921 209.726 206.903 208.014 205.716 205.752C205.305 204.764 205.142 203.69 205.24 202.623C205.339 201.557 205.696 200.532 206.281 199.635C204.363 198.687 202.746 197.225 201.611 195.412C200.624 193.491 201.085 190.676 203.071 189.86C202.047 188.518 201.341 186.961 201.006 185.307C200.671 183.653 200.716 181.944 201.137 180.309C201.655 178.832 202.524 177.504 203.67 176.438C204.816 175.372 206.205 174.601 207.715 174.192C208.68 173.966 209.579 173.518 210.339 172.883C211.1 172.248 211.702 171.443 212.096 170.534C212.78 168.706 212.806 166.68 213.622 164.904C214.061 163.959 214.711 163.127 215.522 162.472C216.333 161.817 217.283 161.357 218.299 161.127C219.316 160.897 220.371 160.903 221.385 161.145C222.399 161.387 223.344 161.858 224.147 162.523C224.425 161.503 224.902 160.548 225.55 159.713C226.198 158.878 227.004 158.178 227.922 157.655C228.881 157.139 229.952 156.869 231.04 156.869C232.129 156.869 233.2 157.139 234.158 157.655C235.113 158.178 235.889 158.976 236.386 159.944C236.883 160.912 237.079 162.008 236.947 163.088C237.41 162.355 238.112 161.803 238.934 161.528C239.756 161.252 240.648 161.269 241.46 161.575C243.107 162.194 244.447 163.43 245.196 165.022C245.921 166.599 246.519 168.231 246.985 169.903C247.457 171.582 248.323 173.125 249.511 174.402C250.501 175.324 251.746 175.926 253.084 176.13C254.421 176.335 255.789 176.131 257.01 175.547C257.34 176.174 257.473 176.887 257.391 177.592C257.309 178.296 257.015 178.959 256.549 179.493C256.109 180.038 255.513 180.436 254.84 180.633C254.168 180.831 253.452 180.819 252.787 180.599C253.251 181.296 253.553 182.089 253.67 182.918C253.788 183.748 253.718 184.593 253.465 185.392C253.213 186.191 252.784 186.924 252.212 187.535C251.639 188.147 250.936 188.622 250.156 188.926C245.669 188.15 241.341 191.057 239.249 195.096C237.158 199.135 236.526 203.779 234.934 208.055C233.343 212.33 230.225 217.264 225.778 218.158Z" fill="#263238"/>
<path opacity="0.2" d="M242.262 218.329C241.994 219.804 241.805 221.293 241.696 222.788C241.604 223.861 241.604 224.939 241.696 226.012V226.196C237.592 225.459 232.08 221.328 231.343 217.158C231.095 215.791 230.998 214.401 231.053 213.014L242.262 218.329Z" fill="black"/>
<path d="M218.95 236.023L223.489 234.195C228.634 239.008 234.826 242.562 241.578 244.575C238.758 246.597 236.605 249.414 235.395 252.665C219.371 247.758 218.95 236.023 218.95 236.023Z" fill="white"/>
<path d="M251.708 235.063L247.406 234.3C247.406 234.3 245.946 243.246 241.591 244.64C249.353 247.377 250.8 251.139 250.8 251.139C261.68 247.232 251.708 235.063 251.708 235.063Z" fill="white"/>
<path d="M213.898 188.479C213.87 183.886 215.667 179.47 218.894 176.201C222.121 172.932 226.513 171.079 231.106 171.047C245.064 170.613 255.181 187.413 257.72 199.148C258.436 202.184 258.308 205.358 257.35 208.327C256.391 211.296 254.639 213.946 252.283 215.991C249.927 218.035 247.056 219.396 243.982 219.927C240.908 220.457 237.747 220.137 234.842 219C225.844 215.606 222.673 208.581 216.253 197.096C214.726 194.479 213.914 191.508 213.898 188.479Z" fill="#B55B52"/>
<path d="M210.031 187.9C210.009 189.656 210.353 191.397 211.041 193.013C211.729 194.629 212.746 196.084 214.026 197.285C215.307 198.487 216.824 199.408 218.48 199.992C220.136 200.575 221.896 200.808 223.647 200.675C224.935 200.635 226.174 200.173 227.172 199.359C225.088 199.156 223.166 198.146 221.818 196.544C221.138 195.783 220.617 194.894 220.285 193.93C219.953 192.965 219.817 191.944 219.884 190.926C220.756 190.893 221.609 190.657 222.374 190.236C223.139 189.816 223.795 189.224 224.291 188.506C224.761 187.762 225.051 186.921 225.14 186.047C225.229 185.172 225.114 184.289 224.804 183.467C224.992 181.313 225.434 179.189 226.12 177.139C226.682 175.324 227.847 173.755 229.422 172.692C230.218 172.179 231.143 171.901 232.09 171.889C233.037 171.878 233.968 172.133 234.777 172.627C235.624 173.373 236.428 174.168 237.184 175.008C238.039 175.744 245.551 171.061 235.513 167.575C232.543 166.646 229.391 166.461 226.333 167.037C223.275 167.613 220.405 168.931 217.977 170.877C213.122 174.731 210.11 181.717 210.031 187.9Z" fill="#263238"/>
<path d="M251.721 201.648C251.721 201.648 248.13 201.858 238.763 204.871C240.749 207.673 243.525 209.555 248.327 208.015C249.568 207.681 250.629 206.874 251.283 205.768C251.937 204.662 252.132 203.344 251.826 202.095C251.8 201.951 251.761 201.793 251.721 201.648Z" fill="#263238"/>
<path d="M245.393 206.2C247.211 205.499 249.215 205.453 251.063 206.068C250.386 206.982 249.43 207.651 248.34 207.976C246.523 208.676 244.518 208.723 242.67 208.107C243.338 207.184 244.297 206.512 245.393 206.2Z" fill="#E83F3F"/>
<path d="M251.274 201.7C251.296 202.098 251.213 202.495 251.033 202.851C250.853 203.207 250.582 203.508 250.248 203.726C247.465 204.605 244.607 205.226 241.71 205.581C241.246 205.666 240.769 205.629 240.324 205.475C239.879 205.32 239.481 205.053 239.171 204.699C243.113 203.36 247.162 202.357 251.274 201.7Z" fill="white"/>
<path opacity="0.2" d="M248.156 198.661C249.024 198.512 249.848 198.176 250.573 197.676C251.298 197.176 251.905 196.525 252.353 195.767C249.207 194.119 246.304 192.048 243.722 189.61L248.156 198.661Z" fill="black"/>
<path d="M217.069 200.082C220.095 198.767 224.489 201.819 226.58 204.345C228.896 207.16 228.633 210.449 225.094 210.554C222.245 210.49 219.505 209.45 217.332 207.607C214.648 205.279 214.109 201.385 217.069 200.082Z" fill="#B55B52"/>
<path d="M236.381 191.307C237.013 191.031 237.96 191.675 238.368 192.623C238.776 193.57 238.644 194.504 238.013 194.793C237.381 195.083 236.553 194.478 236.013 193.557C235.474 192.636 235.737 191.583 236.381 191.307Z" fill="#263238"/>
<path d="M247.09 185.9C247.735 185.637 248.629 186.176 249.09 187.137C249.55 188.097 249.419 189.123 248.774 189.399C248.129 189.676 247.235 189.11 246.774 188.15C246.314 187.189 246.459 186.176 247.09 185.9Z" fill="#263238"/>
<path d="M243.578 182.612C243.672 182.657 243.775 182.681 243.88 182.681C243.985 182.681 244.088 182.657 244.183 182.612C244.855 182.176 245.619 181.9 246.415 181.804C247.21 181.708 248.017 181.795 248.774 182.059C248.846 182.095 248.924 182.116 249.004 182.122C249.084 182.127 249.164 182.117 249.24 182.091C249.316 182.066 249.386 182.025 249.446 181.972C249.506 181.919 249.555 181.855 249.59 181.783C249.657 181.631 249.661 181.459 249.602 181.304C249.543 181.148 249.425 181.023 249.274 180.954C248.334 180.603 247.326 180.476 246.328 180.581C245.331 180.686 244.371 181.021 243.525 181.559C243.385 181.649 243.284 181.789 243.245 181.951C243.206 182.113 243.231 182.283 243.315 182.427C243.388 182.507 243.478 182.569 243.578 182.612Z" fill="#263238"/>
<path d="M232.474 190.702C232.575 190.683 232.67 190.639 232.75 190.575C232.83 190.511 232.894 190.428 232.935 190.334C233.204 189.576 233.641 188.89 234.213 188.325C234.785 187.76 235.476 187.331 236.237 187.071C236.315 187.054 236.388 187.022 236.454 186.976C236.519 186.93 236.575 186.872 236.617 186.805C236.66 186.738 236.689 186.663 236.703 186.584C236.717 186.506 236.715 186.425 236.697 186.347C236.679 186.268 236.645 186.192 236.597 186.126C236.549 186.06 236.488 186.003 236.419 185.961C236.349 185.918 236.271 185.889 236.19 185.877C236.11 185.864 236.027 185.867 235.947 185.887C234.991 186.188 234.118 186.707 233.396 187.404C232.675 188.1 232.125 188.954 231.79 189.9C231.761 189.977 231.747 190.06 231.749 190.143C231.752 190.226 231.771 190.308 231.805 190.384C231.839 190.46 231.888 190.528 231.949 190.585C232.009 190.642 232.081 190.686 232.159 190.715C232.263 190.735 232.372 190.731 232.474 190.702Z" fill="#263238"/>
<path d="M215.543 272.846L217.201 269.347C219.371 264.742 228.514 246.403 232.987 244.469L234.619 243.43L240.749 252.876C239.684 253.783 227.988 283.976 225.199 290.29C224.769 291.256 224.404 292.249 224.107 293.264C222.252 300.236 210.491 310.761 202.598 290.882C200.637 286.686 198.835 282.555 197.217 278.385C196.388 276.214 195.638 274.175 194.888 272.03C194.757 271.649 194.481 270.873 194.125 269.833C190.481 259.427 189.863 247.469 199.796 241.378L206.479 239.128L215.543 272.846Z" fill="#407BFF"/>
<g opacity="0.1">
<path d="M215.543 272.846L217.201 269.347C219.371 264.742 228.514 246.403 232.987 244.469L234.619 243.43L240.749 252.876C239.684 253.783 227.988 283.976 225.199 290.29C224.769 291.256 224.404 292.249 224.107 293.264C222.252 300.236 210.491 310.761 202.598 290.882C200.637 286.686 198.835 282.555 197.217 278.385C196.388 276.214 195.638 274.175 194.888 272.03C194.757 271.649 194.481 270.873 194.125 269.833C190.481 259.427 189.863 247.469 199.796 241.378L206.479 239.128L215.543 272.846Z" fill="white"/>
</g>
<path d="M250.8 236.629C250.856 237.076 250.958 237.517 251.103 237.944C251.301 238.573 251.561 239.182 251.879 239.76C252.321 240.515 252.871 241.202 253.51 241.799L253.944 242.18C254.331 242.537 254.75 242.859 255.194 243.141C256.024 243.757 256.968 244.204 257.97 244.456C258.063 244.475 258.15 244.515 258.223 244.575C258.296 244.635 258.354 244.711 258.391 244.798C258.509 245.048 258.667 245.272 258.799 245.496C258.93 245.719 259.023 245.903 259.115 246.101C259.228 246.404 259.442 246.659 259.72 246.824C260.248 247.133 260.827 247.342 261.43 247.443C262.999 247.771 264.605 247.89 266.206 247.798C267.033 247.77 267.859 247.695 268.679 247.574C269.569 247.452 270.448 247.263 271.31 247.009C272.002 246.827 272.662 246.543 273.27 246.167C273.533 246.029 273.742 245.806 273.862 245.535C273.928 245.377 273.941 245.246 274.02 245.088L274.546 243.772C274.809 243.128 275.02 242.457 275.217 241.799C275.439 241.157 275.624 240.502 275.77 239.839C275.901 239.155 276.059 238.523 276.164 237.786C276.335 236.629 276.467 235.471 276.599 234.3C276.599 233.748 276.599 233.116 276.599 232.564C276.615 232.12 276.566 231.677 276.454 231.248C276.361 230.947 276.199 230.672 275.98 230.446C275.364 229.826 274.624 229.342 273.81 229.025C273.043 228.722 272.244 228.511 271.428 228.393C271.086 228.393 270.757 228.262 270.415 228.222C266.83 227.717 263.177 227.991 259.707 229.025C259.011 229.23 258.33 229.48 257.667 229.775C257.093 230.062 256.555 230.415 256.062 230.827C255.687 231.127 255.374 231.498 255.142 231.919C255.065 232.087 255.008 232.264 254.971 232.445C254.971 232.656 254.971 232.669 254.707 232.629C254.154 232.507 253.578 232.532 253.038 232.703C252.497 232.874 252.011 233.184 251.629 233.603C251.333 233.967 251.113 234.388 250.984 234.84C250.797 235.416 250.734 236.026 250.8 236.629ZM259.628 233.892C258.906 233.776 258.2 233.577 257.523 233.3C257.354 233.249 257.197 233.164 257.062 233.05C257.266 232.626 257.574 232.259 257.957 231.985C258.207 231.803 258.471 231.64 258.746 231.498C259.222 231.25 259.719 231.048 260.233 230.893C261.027 230.649 261.835 230.455 262.653 230.314C263.437 230.178 264.228 230.081 265.022 230.025C265.758 230.025 266.337 229.946 267.1 229.946C268.033 229.955 268.964 230.016 269.889 230.13C270.831 230.24 271.758 230.456 272.652 230.774C273.421 231.033 274.11 231.486 274.651 232.09H274.586L274.388 232.235C274.203 232.365 274.01 232.484 273.81 232.59C273.053 232.977 272.254 233.272 271.428 233.471L270.863 233.603L270.547 233.682C269.934 233.819 269.315 233.924 268.692 233.998C268.092 234.099 267.485 234.161 266.876 234.182L265.469 234.287H265.061C264.429 234.287 263.811 234.287 263.18 234.287C262.548 234.287 262.075 234.287 261.522 234.287C260.884 234.188 260.252 234.056 259.628 233.892ZM253.681 236.05C253.728 235.784 253.856 235.54 254.046 235.349C254.237 235.159 254.482 235.031 254.747 234.984H255.155C255.313 235.892 255.536 236.747 255.734 237.615C255.984 238.76 256.339 239.865 256.694 240.97C256.855 241.519 257.094 242.042 257.404 242.522L256.747 242.023C255.511 240.926 254.52 239.581 253.839 238.076C253.569 237.435 253.514 236.725 253.681 236.05Z" fill="white"/>
<path opacity="0.7" d="M256.418 233.537C257.838 234.708 260.93 235.287 265.982 234.997C271.034 234.708 274.046 233.774 275.309 232.458C275.641 232.053 275.801 231.534 275.754 231.013C275.707 230.491 275.458 230.009 275.059 229.669C274.677 229.42 274.272 229.209 273.849 229.038C273.082 228.735 272.283 228.524 271.468 228.406L270.455 228.222C266.867 227.727 263.215 228.009 259.746 229.051C259.051 229.251 258.37 229.497 257.707 229.788C257.366 229.96 257.037 230.153 256.72 230.366C256.464 230.534 256.249 230.757 256.091 231.019C255.933 231.281 255.836 231.575 255.807 231.879C255.778 232.183 255.818 232.491 255.923 232.778C256.029 233.065 256.198 233.324 256.418 233.537ZM257.049 233.05C257.249 232.623 257.558 232.256 257.944 231.985C258.194 231.802 258.458 231.64 258.733 231.498C259.212 231.248 259.714 231.045 260.233 230.893C261.023 230.652 261.827 230.459 262.64 230.314C263.424 230.178 264.215 230.081 265.008 230.024C265.701 229.985 266.395 229.985 267.087 230.024C268.019 230.022 268.951 230.079 269.876 230.195C270.813 230.31 271.735 230.526 272.625 230.84C273.398 231.092 274.088 231.546 274.625 232.156L274.415 232.314C274.234 232.44 274.045 232.554 273.849 232.656C273.091 233.038 272.292 233.334 271.468 233.537L270.889 233.682L270.573 233.748C269.968 233.879 269.35 233.984 268.731 234.076C268.113 234.168 267.521 234.221 266.903 234.261C266.284 234.3 265.969 234.34 265.495 234.353H265.074C264.456 234.353 263.837 234.353 263.206 234.353C262.574 234.353 262.101 234.353 261.548 234.274C260.908 234.205 260.271 234.104 259.641 233.971C258.924 233.853 258.222 233.654 257.549 233.379C257.359 233.309 257.188 233.197 257.049 233.05Z" fill="white"/>
<path d="M257.062 233.05C257.197 233.164 257.354 233.249 257.523 233.3C258.2 233.577 258.906 233.776 259.628 233.892C260.254 234.025 260.886 234.126 261.522 234.195C262.075 234.195 262.627 234.195 263.18 234.195C263.732 234.195 264.429 234.195 265.061 234.195H265.469L266.876 234.09C267.485 234.069 268.092 234.007 268.692 233.905C269.315 233.832 269.934 233.727 270.547 233.59L270.863 233.511L271.428 233.379C272.254 233.18 273.053 232.884 273.809 232.498C274.01 232.392 274.203 232.273 274.388 232.143L274.586 231.998H274.651C274.11 231.394 273.421 230.941 272.652 230.682C271.758 230.364 270.831 230.148 269.889 230.038C268.964 229.924 268.032 229.862 267.1 229.854C266.35 229.854 265.784 229.854 265.021 229.932C264.228 229.989 263.437 230.086 262.653 230.222C261.835 230.363 261.027 230.557 260.233 230.801C259.719 230.956 259.222 231.158 258.746 231.406C258.471 231.548 258.207 231.71 257.957 231.893C257.561 232.193 257.253 232.592 257.062 233.05Z" fill="#263238"/>
<path opacity="0.3" d="M256.997 231.485C257.16 231.281 257.345 231.096 257.549 230.932C259.434 229.685 261.6 228.926 263.851 228.722C265.108 228.532 266.382 228.466 267.653 228.525C269.846 228.534 272.009 229.037 273.981 229.998C274.197 230.136 274.4 230.294 274.586 230.472C274.79 230.665 274.914 230.927 274.934 231.208C274.953 231.488 274.867 231.765 274.691 231.985C274.623 232.057 274.548 232.123 274.467 232.182C272.52 230.274 267.429 230.209 265.745 230.235C264.061 230.261 259.036 231.051 257.312 233.156C257.222 233.116 257.137 233.062 257.062 232.998C256.866 232.798 256.751 232.533 256.739 232.254C256.727 231.975 256.819 231.701 256.997 231.485Z" fill="black"/>
<path d="M254.444 238.168L255.549 243.574L252.208 247.613C248.949 250.362 245.008 252.18 240.802 252.876C239.671 253.008 238.528 252.791 237.525 252.252C236.523 251.713 235.71 250.879 235.197 249.863L234.658 248.824C234.425 248.355 234.248 247.861 234.132 247.35C233.461 244.561 234.408 242.982 236.763 241.351L244.906 234.194C245.512 233.76 254.799 232.879 254.799 232.879C255.799 232.905 254.642 237.168 254.444 238.168Z" fill="#B55B52"/>
<path d="M237.211 347.163H228.909V382.578H237.211V347.163Z" fill="#263238"/>
<path d="M237.211 347.163H228.909V407.324H237.211V347.163Z" fill="#407BFF"/>
<path opacity="0.5" d="M237.211 347.163H228.909V407.324H237.211V347.163Z" fill="white"/>
<path d="M185.495 352.859C203.321 345.334 243.38 350.294 262.035 355.49C263.907 356.064 265.924 355.933 267.706 355.121C269.487 354.309 270.91 352.872 271.705 351.083C273.165 347.4 270.073 336.059 265.377 334.744C243.604 328.666 200.717 330.797 179.865 339.585C175.365 341.48 173.405 346.255 175.313 349.715C176.333 351.392 177.932 352.638 179.808 353.217C181.684 353.796 183.707 353.669 185.495 352.859Z" fill="#407BFF"/>
<g opacity="0.3">
<path d="M185.495 352.859C203.321 345.334 243.38 350.294 262.035 355.49C263.907 356.064 265.924 355.933 267.706 355.121C269.487 354.309 270.91 352.872 271.705 351.083C273.165 347.4 270.073 336.059 265.377 334.744C243.604 328.666 200.717 330.797 179.865 339.585C175.365 341.48 173.405 346.255 175.313 349.715C176.333 351.392 177.932 352.638 179.808 353.217C181.684 353.796 183.707 353.669 185.495 352.859Z" fill="white"/>
</g>
<path d="M212.925 328.93L196.099 531.685H201.204L228.791 328.93H212.925Z" fill="#407BFF"/>
<path d="M400.092 328.93L427.679 531.685H432.783L415.957 328.93H400.092Z" fill="#407BFF"/>
<path d="M228.475 531.843H233.58L263.404 328.93H247.538L228.475 531.843Z" fill="#407BFF"/>
<path d="M448.531 328.93H432.652L463.107 531.843H468.212L448.531 328.93Z" fill="#407BFF"/>
<path d="M463.16 325.733C463.119 324.409 462.554 323.156 461.59 322.248C460.625 321.34 459.34 320.852 458.016 320.891H184.891C184.233 320.857 183.575 320.957 182.957 321.185C182.339 321.413 181.774 321.765 181.296 322.218C180.818 322.672 180.438 323.218 180.178 323.823C179.918 324.429 179.783 325.08 179.783 325.739C179.783 326.398 179.918 327.05 180.178 327.655C180.438 328.26 180.818 328.806 181.296 329.26C181.774 329.714 182.339 330.065 182.957 330.293C183.575 330.521 184.233 330.621 184.891 330.587H458.016C458.673 330.606 459.327 330.496 459.941 330.262C460.555 330.029 461.116 329.677 461.594 329.226C462.072 328.775 462.456 328.234 462.725 327.635C462.993 327.036 463.141 326.389 463.16 325.733Z" fill="#407BFF"/>
<path opacity="0.5" d="M463.081 531.843H468.186L448.662 330.561H457.99C458.648 330.595 459.306 330.495 459.924 330.267C460.542 330.039 461.107 329.687 461.585 329.234C462.062 328.78 462.443 328.234 462.703 327.629C462.963 327.024 463.097 326.372 463.097 325.713C463.097 325.054 462.963 324.402 462.703 323.797C462.443 323.192 462.062 322.646 461.585 322.192C461.107 321.739 460.542 321.387 459.924 321.159C459.306 320.931 458.648 320.831 457.99 320.865H184.891C184.233 320.831 183.575 320.931 182.957 321.159C182.339 321.387 181.774 321.739 181.296 322.192C180.818 322.646 180.438 323.192 180.178 323.797C179.918 324.402 179.783 325.054 179.783 325.713C179.783 326.372 179.918 327.024 180.178 327.629C180.438 328.234 180.818 328.78 181.296 329.234C181.774 329.687 182.339 330.039 182.957 330.267C183.575 330.495 184.233 330.595 184.891 330.561H212.781L196.099 531.685H201.204L228.567 330.587H247.328L228.423 531.869H233.527L263.114 330.587H400.315L427.679 531.685H432.823L416.102 330.587H432.902L463.081 531.843Z" fill="#1C2436"/>
<path d="M346.403 317.076H349.942C350.12 317.076 350.29 317.006 350.416 316.88C350.542 316.754 350.613 316.583 350.613 316.405V312.682C350.596 312.516 350.519 312.362 350.394 312.25C350.27 312.138 350.109 312.076 349.942 312.077H347.403C347.255 312.076 347.111 312.124 346.994 312.215C346.877 312.306 346.794 312.433 346.758 312.577L345.758 316.3C345.743 316.394 345.749 316.491 345.774 316.583C345.799 316.675 345.844 316.761 345.905 316.834C345.966 316.908 346.042 316.967 346.128 317.009C346.214 317.051 346.307 317.074 346.403 317.076Z" fill="#407BFF"/>
<path d="M341.522 317.076H345.048C345.137 317.078 345.225 317.062 345.307 317.029C345.389 316.996 345.464 316.946 345.526 316.884C345.589 316.821 345.638 316.746 345.672 316.664C345.705 316.582 345.721 316.494 345.719 316.405V312.682C345.719 312.504 345.648 312.334 345.522 312.208C345.397 312.082 345.226 312.011 345.048 312.011H342.522C342.372 312.009 342.226 312.057 342.107 312.148C341.988 312.239 341.902 312.366 341.864 312.511L340.878 316.234C340.852 316.333 340.848 316.437 340.869 316.537C340.889 316.638 340.931 316.732 340.994 316.813C341.056 316.894 341.136 316.96 341.227 317.006C341.319 317.052 341.42 317.076 341.522 317.076Z" fill="#407BFF"/>
<path d="M336.655 317.076H340.18C340.358 317.076 340.529 317.006 340.655 316.88C340.781 316.754 340.851 316.583 340.851 316.405V312.682C340.851 312.504 340.781 312.334 340.655 312.208C340.529 312.082 340.358 312.011 340.18 312.011H337.654C337.505 312.009 337.359 312.057 337.239 312.148C337.12 312.239 337.035 312.366 336.997 312.511L336.01 316.234C335.984 316.333 335.981 316.437 336.001 316.537C336.021 316.638 336.064 316.732 336.126 316.813C336.188 316.894 336.268 316.96 336.36 317.006C336.451 317.052 336.552 317.076 336.655 317.076Z" fill="#407BFF"/>
<path d="M331.787 317.076H335.313C335.491 317.076 335.662 317.006 335.787 316.88C335.913 316.754 335.984 316.583 335.984 316.405V312.682C335.984 312.504 335.913 312.334 335.787 312.208C335.662 312.082 335.491 312.011 335.313 312.011H332.84C332.692 312.01 332.547 312.059 332.43 312.149C332.313 312.24 332.231 312.367 332.195 312.511L331.195 316.234C331.17 316.329 331.166 316.428 331.183 316.525C331.2 316.622 331.238 316.713 331.294 316.794C331.351 316.874 331.424 316.941 331.509 316.99C331.595 317.038 331.689 317.068 331.787 317.076Z" fill="#407BFF"/>
<path d="M326.919 317.076H330.445C330.623 317.076 330.794 317.006 330.92 316.88C331.045 316.754 331.116 316.583 331.116 316.405V312.682C331.116 312.504 331.045 312.334 330.92 312.208C330.794 312.082 330.623 312.011 330.445 312.011H327.906C327.758 312.01 327.614 312.059 327.497 312.149C327.38 312.24 327.297 312.367 327.262 312.511L326.262 316.234C326.235 316.334 326.232 316.439 326.253 316.54C326.274 316.642 326.318 316.737 326.382 316.818C326.445 316.9 326.527 316.966 326.62 317.01C326.714 317.055 326.816 317.078 326.919 317.076Z" fill="#407BFF"/>
<path d="M322.039 317.076H325.564C325.653 317.078 325.741 317.062 325.823 317.029C325.905 316.996 325.98 316.946 326.043 316.884C326.105 316.821 326.155 316.746 326.188 316.664C326.221 316.582 326.237 316.494 326.235 316.405V312.682C326.235 312.504 326.165 312.334 326.039 312.208C325.913 312.082 325.742 312.011 325.564 312.011H323.038C322.89 312.01 322.746 312.059 322.629 312.149C322.512 312.24 322.429 312.367 322.394 312.511L321.394 316.234C321.368 316.333 321.365 316.437 321.385 316.537C321.405 316.638 321.448 316.732 321.51 316.813C321.572 316.894 321.652 316.96 321.744 317.006C321.835 317.052 321.936 317.076 322.039 317.076Z" fill="#407BFF"/>
<path d="M317.171 317.076H320.697C320.875 317.076 321.045 317.006 321.171 316.88C321.297 316.754 321.368 316.583 321.368 316.405V312.682C321.368 312.504 321.297 312.334 321.171 312.208C321.045 312.082 320.875 312.011 320.697 312.011H318.171C318.021 312.009 317.875 312.057 317.756 312.148C317.637 312.239 317.551 312.366 317.513 312.511L316.526 316.234C316.5 316.333 316.497 316.437 316.517 316.537C316.537 316.638 316.58 316.732 316.642 316.813C316.705 316.894 316.785 316.96 316.876 317.006C316.968 317.052 317.069 317.076 317.171 317.076Z" fill="#407BFF"/>
<path d="M312.304 317.076H315.829C316.007 317.076 316.178 317.006 316.304 316.88C316.43 316.754 316.5 316.583 316.5 316.406V312.682C316.5 312.505 316.43 312.334 316.304 312.208C316.178 312.082 316.007 312.012 315.829 312.012H313.303C313.153 312.007 313.006 312.054 312.886 312.145C312.767 312.236 312.682 312.365 312.646 312.511L311.659 316.235C311.63 316.334 311.625 316.438 311.644 316.54C311.663 316.641 311.705 316.737 311.768 316.819C311.831 316.901 311.912 316.967 312.005 317.011C312.098 317.056 312.2 317.079 312.304 317.076Z" fill="#407BFF"/>
<path d="M307.436 317.076H310.962C311.139 317.076 311.31 317.006 311.436 316.88C311.562 316.754 311.633 316.583 311.633 316.405V312.682C311.633 312.504 311.562 312.334 311.436 312.208C311.31 312.082 311.139 312.011 310.962 312.011H308.423C308.274 312.01 308.13 312.059 308.013 312.149C307.896 312.24 307.813 312.367 307.778 312.511L306.778 316.234C306.752 316.334 306.749 316.439 306.77 316.54C306.79 316.642 306.834 316.737 306.898 316.818C306.962 316.9 307.043 316.966 307.137 317.01C307.23 317.055 307.332 317.078 307.436 317.076Z" fill="#407BFF"/>
<path d="M302.581 317.076H306.107C306.196 317.078 306.285 317.062 306.368 317.029C306.451 316.996 306.526 316.947 306.59 316.885C306.654 316.822 306.704 316.747 306.739 316.665C306.774 316.583 306.791 316.495 306.791 316.405V312.682C306.791 312.593 306.774 312.505 306.739 312.422C306.704 312.34 306.654 312.266 306.59 312.203C306.526 312.141 306.451 312.092 306.368 312.059C306.285 312.026 306.196 312.01 306.107 312.011H303.581C303.433 312.01 303.289 312.059 303.172 312.149C303.055 312.24 302.972 312.368 302.937 312.511L301.937 316.234C301.911 316.333 301.908 316.437 301.928 316.537C301.948 316.638 301.991 316.732 302.053 316.813C302.115 316.894 302.195 316.96 302.287 317.006C302.378 317.052 302.479 317.076 302.581 317.076Z" fill="#407BFF"/>
<path d="M297.688 317.076H301.266C301.444 317.076 301.614 317.006 301.74 316.88C301.866 316.754 301.937 316.583 301.937 316.405V312.682C301.92 312.516 301.843 312.362 301.718 312.25C301.594 312.138 301.433 312.076 301.266 312.077H298.635C298.485 312.075 298.339 312.123 298.22 312.214C298.101 312.305 298.015 312.432 297.977 312.577L296.99 316.3C296.974 316.399 296.981 316.5 297.009 316.596C297.037 316.692 297.087 316.78 297.154 316.855C297.22 316.929 297.303 316.988 297.395 317.026C297.488 317.064 297.588 317.082 297.688 317.076Z" fill="#407BFF"/>
<path d="M292.82 317.076H296.346C296.524 317.076 296.694 317.006 296.82 316.88C296.946 316.754 297.017 316.583 297.017 316.406V312.682C297.017 312.505 296.946 312.334 296.82 312.208C296.694 312.082 296.524 312.012 296.346 312.012H293.82C293.669 312.007 293.522 312.054 293.403 312.145C293.283 312.236 293.198 312.365 293.162 312.511L292.175 316.235C292.146 316.334 292.141 316.438 292.16 316.54C292.179 316.641 292.222 316.737 292.284 316.819C292.347 316.901 292.428 316.967 292.521 317.011C292.614 317.056 292.717 317.079 292.82 317.076Z" fill="#407BFF"/>
<path d="M287.952 317.076H291.478C291.656 317.076 291.827 317.006 291.952 316.88C292.078 316.754 292.149 316.583 292.149 316.405V312.682C292.149 312.504 292.078 312.334 291.952 312.208C291.827 312.082 291.656 312.011 291.478 312.011H288.939C288.791 312.01 288.647 312.059 288.53 312.149C288.413 312.24 288.33 312.367 288.294 312.511L287.295 316.234C287.268 316.334 287.265 316.439 287.286 316.54C287.307 316.642 287.351 316.737 287.415 316.818C287.478 316.9 287.56 316.966 287.653 317.01C287.746 317.055 287.849 317.078 287.952 317.076Z" fill="#407BFF"/>
<path d="M283.085 317.076H286.597C286.686 317.078 286.775 317.062 286.858 317.029C286.941 316.996 287.016 316.947 287.08 316.885C287.144 316.822 287.194 316.747 287.229 316.665C287.264 316.583 287.281 316.495 287.281 316.405V312.682C287.281 312.593 287.264 312.505 287.229 312.422C287.194 312.34 287.144 312.266 287.08 312.203C287.016 312.141 286.941 312.092 286.858 312.059C286.775 312.026 286.686 312.01 286.597 312.011H284.071C283.923 312.01 283.779 312.059 283.662 312.149C283.545 312.24 283.462 312.368 283.427 312.511L282.427 316.234C282.4 316.334 282.398 316.439 282.418 316.54C282.439 316.642 282.483 316.737 282.547 316.819C282.611 316.9 282.692 316.966 282.786 317.01C282.879 317.055 282.981 317.078 283.085 317.076Z" fill="#407BFF"/>
<path d="M278.204 317.076H281.73C281.908 317.076 282.078 317.006 282.204 316.88C282.33 316.754 282.401 316.583 282.401 316.405V312.682C282.401 312.504 282.33 312.334 282.204 312.208C282.078 312.082 281.908 312.011 281.73 312.011H279.204C279.054 312.009 278.908 312.057 278.789 312.148C278.67 312.239 278.584 312.366 278.546 312.511L277.559 316.234C277.533 316.333 277.53 316.437 277.55 316.537C277.57 316.638 277.613 316.732 277.675 316.813C277.738 316.894 277.818 316.96 277.909 317.006C278.001 317.052 278.102 317.076 278.204 317.076Z" fill="#407BFF"/>
<g opacity="0.6">
<path d="M346.403 317.076H349.942C350.12 317.076 350.29 317.006 350.416 316.88C350.542 316.754 350.613 316.583 350.613 316.405V312.682C350.596 312.516 350.519 312.362 350.394 312.25C350.27 312.138 350.109 312.076 349.942 312.077H347.403C347.255 312.076 347.111 312.124 346.994 312.215C346.877 312.306 346.794 312.433 346.758 312.577L345.758 316.3C345.743 316.394 345.749 316.491 345.774 316.583C345.799 316.675 345.844 316.761 345.905 316.834C345.966 316.908 346.042 316.967 346.128 317.009C346.214 317.051 346.307 317.074 346.403 317.076Z" fill="white"/>
<path d="M341.522 317.076H345.048C345.137 317.078 345.225 317.062 345.307 317.029C345.389 316.996 345.464 316.946 345.526 316.884C345.589 316.821 345.638 316.746 345.672 316.664C345.705 316.582 345.721 316.494 345.719 316.405V312.682C345.719 312.504 345.648 312.334 345.522 312.208C345.397 312.082 345.226 312.011 345.048 312.011H342.522C342.372 312.009 342.226 312.057 342.107 312.148C341.988 312.239 341.902 312.366 341.864 312.511L340.878 316.234C340.852 316.333 340.848 316.437 340.869 316.537C340.889 316.638 340.931 316.732 340.994 316.813C341.056 316.894 341.136 316.96 341.227 317.006C341.319 317.052 341.42 317.076 341.522 317.076Z" fill="white"/>
<path d="M336.655 317.076H340.18C340.358 317.076 340.529 317.006 340.655 316.88C340.781 316.754 340.851 316.583 340.851 316.405V312.682C340.851 312.504 340.781 312.334 340.655 312.208C340.529 312.082 340.358 312.011 340.18 312.011H337.654C337.505 312.009 337.359 312.057 337.239 312.148C337.12 312.239 337.035 312.366 336.997 312.511L336.01 316.234C335.984 316.333 335.981 316.437 336.001 316.537C336.021 316.638 336.064 316.732 336.126 316.813C336.188 316.894 336.268 316.96 336.36 317.006C336.451 317.052 336.552 317.076 336.655 317.076Z" fill="white"/>
<path d="M331.787 317.076H335.313C335.491 317.076 335.662 317.006 335.787 316.88C335.913 316.754 335.984 316.583 335.984 316.405V312.682C335.984 312.504 335.913 312.334 335.787 312.208C335.662 312.082 335.491 312.011 335.313 312.011H332.84C332.692 312.01 332.547 312.059 332.43 312.149C332.313 312.24 332.231 312.367 332.195 312.511L331.195 316.234C331.17 316.329 331.166 316.428 331.183 316.525C331.2 316.622 331.238 316.713 331.294 316.794C331.351 316.874 331.424 316.941 331.509 316.99C331.595 317.038 331.689 317.068 331.787 317.076Z" fill="white"/>
<path d="M326.919 317.076H330.445C330.623 317.076 330.794 317.006 330.92 316.88C331.045 316.754 331.116 316.583 331.116 316.405V312.682C331.116 312.504 331.045 312.334 330.92 312.208C330.794 312.082 330.623 312.011 330.445 312.011H327.906C327.758 312.01 327.614 312.059 327.497 312.149C327.38 312.24 327.297 312.367 327.262 312.511L326.262 316.234C326.235 316.334 326.232 316.439 326.253 316.54C326.274 316.642 326.318 316.737 326.382 316.818C326.445 316.9 326.527 316.966 326.62 317.01C326.714 317.055 326.816 317.078 326.919 317.076Z" fill="white"/>
<path d="M322.039 317.076H325.564C325.653 317.078 325.741 317.062 325.823 317.029C325.905 316.996 325.98 316.946 326.043 316.884C326.105 316.821 326.155 316.746 326.188 316.664C326.221 316.582 326.237 316.494 326.235 316.405V312.682C326.235 312.504 326.165 312.334 326.039 312.208C325.913 312.082 325.742 312.011 325.564 312.011H323.038C322.89 312.01 322.746 312.059 322.629 312.149C322.512 312.24 322.429 312.367 322.394 312.511L321.394 316.234C321.368 316.333 321.365 316.437 321.385 316.537C321.405 316.638 321.448 316.732 321.51 316.813C321.572 316.894 321.652 316.96 321.744 317.006C321.835 317.052 321.936 317.076 322.039 317.076Z" fill="white"/>
<path d="M317.171 317.076H320.697C320.875 317.076 321.045 317.006 321.171 316.88C321.297 316.754 321.368 316.583 321.368 316.405V312.682C321.368 312.504 321.297 312.334 321.171 312.208C321.045 312.082 320.875 312.011 320.697 312.011H318.171C318.021 312.009 317.875 312.057 317.756 312.148C317.637 312.239 317.551 312.366 317.513 312.511L316.526 316.234C316.5 316.333 316.497 316.437 316.517 316.537C316.537 316.638 316.58 316.732 316.642 316.813C316.705 316.894 316.785 316.96 316.876 317.006C316.968 317.052 317.069 317.076 317.171 317.076Z" fill="white"/>
<path d="M312.304 317.076H315.829C316.007 317.076 316.178 317.006 316.304 316.88C316.43 316.754 316.5 316.583 316.5 316.406V312.682C316.5 312.505 316.43 312.334 316.304 312.208C316.178 312.082 316.007 312.012 315.829 312.012H313.303C313.153 312.007 313.006 312.054 312.886 312.145C312.767 312.236 312.682 312.365 312.646 312.511L311.659 316.235C311.63 316.334 311.625 316.438 311.644 316.54C311.663 316.641 311.705 316.737 311.768 316.819C311.831 316.901 311.912 316.967 312.005 317.011C312.098 317.056 312.2 317.079 312.304 317.076Z" fill="white"/>
<path d="M307.436 317.076H310.962C311.139 317.076 311.31 317.006 311.436 316.88C311.562 316.754 311.633 316.583 311.633 316.405V312.682C311.633 312.504 311.562 312.334 311.436 312.208C311.31 312.082 311.139 312.011 310.962 312.011H308.423C308.274 312.01 308.13 312.059 308.013 312.149C307.896 312.24 307.813 312.367 307.778 312.511L306.778 316.234C306.752 316.334 306.749 316.439 306.77 316.54C306.79 316.642 306.834 316.737 306.898 316.818C306.962 316.9 307.043 316.966 307.137 317.01C307.23 317.055 307.332 317.078 307.436 317.076Z" fill="white"/>
<path d="M302.581 317.076H306.107C306.196 317.078 306.285 317.062 306.368 317.029C306.451 316.996 306.526 316.947 306.59 316.885C306.654 316.822 306.704 316.747 306.739 316.665C306.774 316.583 306.791 316.495 306.791 316.405V312.682C306.791 312.593 306.774 312.505 306.739 312.422C306.704 312.34 306.654 312.266 306.59 312.203C306.526 312.141 306.451 312.092 306.368 312.059C306.285 312.026 306.196 312.01 306.107 312.011H303.581C303.433 312.01 303.289 312.059 303.172 312.149C303.055 312.24 302.972 312.368 302.937 312.511L301.937 316.234C301.911 316.333 301.908 316.437 301.928 316.537C301.948 316.638 301.991 316.732 302.053 316.813C302.115 316.894 302.195 316.96 302.287 317.006C302.378 317.052 302.479 317.076 302.581 317.076Z" fill="white"/>
<path d="M297.688 317.076H301.266C301.444 317.076 301.614 317.006 301.74 316.88C301.866 316.754 301.937 316.583 301.937 316.405V312.682C301.92 312.516 301.843 312.362 301.718 312.25C301.594 312.138 301.433 312.076 301.266 312.077H298.635C298.485 312.075 298.339 312.123 298.22 312.214C298.101 312.305 298.015 312.432 297.977 312.577L296.99 316.3C296.974 316.399 296.981 316.5 297.009 316.596C297.037 316.692 297.087 316.78 297.154 316.855C297.22 316.929 297.303 316.988 297.395 317.026C297.488 317.064 297.588 317.082 297.688 317.076Z" fill="white"/>
<path d="M292.82 317.076H296.346C296.524 317.076 296.694 317.006 296.82 316.88C296.946 316.754 297.017 316.583 297.017 316.406V312.682C297.017 312.505 296.946 312.334 296.82 312.208C296.694 312.082 296.524 312.012 296.346 312.012H293.82C293.669 312.007 293.522 312.054 293.403 312.145C293.283 312.236 293.198 312.365 293.162 312.511L292.175 316.235C292.146 316.334 292.141 316.438 292.16 316.54C292.179 316.641 292.222 316.737 292.284 316.819C292.347 316.901 292.428 316.967 292.521 317.011C292.614 317.056 292.717 317.079 292.82 317.076Z" fill="white"/>
<path d="M287.952 317.076H291.478C291.656 317.076 291.827 317.006 291.952 316.88C292.078 316.754 292.149 316.583 292.149 316.405V312.682C292.149 312.504 292.078 312.334 291.952 312.208C291.827 312.082 291.656 312.011 291.478 312.011H288.939C288.791 312.01 288.647 312.059 288.53 312.149C288.413 312.24 288.33 312.367 288.294 312.511L287.295 316.234C287.268 316.334 287.265 316.439 287.286 316.54C287.307 316.642 287.351 316.737 287.415 316.818C287.478 316.9 287.56 316.966 287.653 317.01C287.746 317.055 287.849 317.078 287.952 317.076Z" fill="white"/>
<path d="M283.085 317.076H286.597C286.686 317.078 286.775 317.062 286.858 317.029C286.941 316.996 287.016 316.947 287.08 316.885C287.144 316.822 287.194 316.747 287.229 316.665C287.264 316.583 287.281 316.495 287.281 316.405V312.682C287.281 312.593 287.264 312.505 287.229 312.422C287.194 312.34 287.144 312.266 287.08 312.203C287.016 312.141 286.941 312.092 286.858 312.059C286.775 312.026 286.686 312.01 286.597 312.011H284.071C283.923 312.01 283.779 312.059 283.662 312.149C283.545 312.24 283.462 312.368 283.427 312.511L282.427 316.234C282.4 316.334 282.398 316.439 282.418 316.54C282.439 316.642 282.483 316.737 282.547 316.819C282.611 316.9 282.692 316.966 282.786 317.01C282.879 317.055 282.981 317.078 283.085 317.076Z" fill="white"/>
<path d="M278.204 317.076H281.73C281.908 317.076 282.078 317.006 282.204 316.88C282.33 316.754 282.401 316.583 282.401 316.405V312.682C282.401 312.504 282.33 312.334 282.204 312.208C282.078 312.082 281.908 312.011 281.73 312.011H279.204C279.054 312.009 278.908 312.057 278.789 312.148C278.67 312.239 278.584 312.366 278.546 312.511L277.559 316.234C277.533 316.333 277.53 316.437 277.55 316.537C277.57 316.638 277.613 316.732 277.675 316.813C277.738 316.894 277.818 316.96 277.909 317.006C278.001 317.052 278.102 317.076 278.204 317.076Z" fill="white"/>
</g>
<path d="M274.665 320.405H353.468V314.537H274.665V320.405Z" fill="#407BFF"/>
<path opacity="0.6" d="M274.665 320.405H353.468V314.537H274.665V320.405Z" fill="white"/>
<path d="M367.978 320.247H391.119V318.181C391.117 317.226 390.921 316.28 390.542 315.403C390.163 314.526 389.61 313.735 388.916 313.077C388.222 312.42 387.402 311.911 386.505 311.581C385.608 311.251 384.654 311.106 383.699 311.156L374.635 311.656C372.837 311.75 371.143 312.532 369.904 313.839C368.665 315.147 367.976 316.88 367.978 318.681V320.247Z" fill="#407BFF"/>
<path opacity="0.6" d="M367.978 320.247H391.119V318.181C391.117 317.226 390.921 316.28 390.542 315.403C390.163 314.526 389.61 313.735 388.916 313.077C388.222 312.42 387.402 311.911 386.505 311.581C385.608 311.251 384.654 311.106 383.699 311.156L374.635 311.656C372.837 311.75 371.143 312.532 369.904 313.839C368.665 315.147 367.976 316.88 367.978 318.681V320.247Z" fill="white"/>
<path d="M294.609 196.557H303.318L296.885 288.581H288.176C287.838 288.586 287.502 288.52 287.192 288.387C286.881 288.254 286.601 288.057 286.372 287.808C286.142 287.56 285.967 287.266 285.859 286.946C285.75 286.626 285.711 286.286 285.742 285.95L291.807 199.122C291.878 198.425 292.203 197.779 292.719 197.306C293.236 196.832 293.909 196.566 294.609 196.557Z" fill="#407BFF"/>
<path opacity="0.7" d="M294.609 196.557H303.318L296.885 288.581H288.176C287.838 288.586 287.502 288.52 287.192 288.387C286.881 288.254 286.601 288.057 286.372 287.808C286.142 287.56 285.967 287.266 285.859 286.946C285.75 286.626 285.711 286.286 285.742 285.95L291.807 199.122C291.878 198.425 292.203 197.779 292.719 197.306C293.236 196.832 293.909 196.566 294.609 196.557Z" fill="white"/>
<path d="M293.175 288.581H423.732C424.443 288.57 425.124 288.294 425.643 287.808C426.161 287.321 426.479 286.659 426.534 285.95L432.599 199.122C432.631 198.785 432.591 198.446 432.482 198.126C432.374 197.805 432.199 197.512 431.97 197.263C431.74 197.015 431.461 196.818 431.15 196.685C430.839 196.552 430.504 196.486 430.165 196.491H299.608C298.897 196.502 298.216 196.778 297.698 197.264C297.18 197.751 296.862 198.413 296.806 199.122L290.741 285.95C290.71 286.286 290.75 286.626 290.858 286.946C290.967 287.266 291.141 287.56 291.371 287.809C291.601 288.057 291.88 288.254 292.191 288.387C292.502 288.52 292.837 288.586 293.175 288.581Z" fill="#8091B1"/>
<path opacity="0.1" d="M404.012 284.674C404.239 284.671 404.458 284.583 404.623 284.427C404.789 284.271 404.89 284.059 404.907 283.832L405.13 280.714C405.139 280.607 405.126 280.499 405.091 280.397C405.056 280.295 405 280.201 404.927 280.122C404.854 280.043 404.766 279.98 404.667 279.937C404.568 279.894 404.462 279.872 404.354 279.872C404.126 279.875 403.908 279.963 403.743 280.119C403.577 280.275 403.476 280.487 403.459 280.714L403.236 283.832C403.229 283.939 403.243 284.046 403.279 284.147C403.315 284.248 403.37 284.341 403.443 284.42C403.516 284.498 403.604 284.562 403.701 284.605C403.799 284.649 403.905 284.672 404.012 284.674Z" fill="black"/>
<path opacity="0.1" d="M400.157 284.674C400.385 284.671 400.603 284.583 400.769 284.427C400.934 284.271 401.036 284.059 401.052 283.832L401.276 280.714C401.285 280.607 401.271 280.499 401.237 280.397C401.202 280.295 401.146 280.201 401.073 280.122C401 280.043 400.911 279.98 400.813 279.937C400.714 279.894 400.607 279.872 400.499 279.872C400.273 279.878 400.056 279.967 399.891 280.122C399.726 280.277 399.624 280.488 399.605 280.714L399.394 283.832C399.383 283.939 399.395 284.046 399.428 284.148C399.461 284.25 399.516 284.344 399.588 284.423C399.66 284.503 399.748 284.566 399.846 284.609C399.944 284.652 400.05 284.674 400.157 284.674Z" fill="black"/>
<path opacity="0.1" d="M396.316 284.674C396.541 284.668 396.756 284.578 396.919 284.423C397.082 284.267 397.181 284.057 397.197 283.832L397.421 280.714C397.43 280.607 397.417 280.499 397.382 280.397C397.347 280.295 397.291 280.201 397.218 280.122C397.145 280.043 397.056 279.98 396.958 279.937C396.859 279.894 396.752 279.872 396.645 279.872C396.418 279.878 396.202 279.967 396.037 280.122C395.871 280.277 395.77 280.488 395.75 280.714L395.54 283.832C395.531 283.939 395.544 284.047 395.579 284.149C395.614 284.251 395.669 284.345 395.742 284.424C395.815 284.503 395.904 284.566 396.003 284.609C396.102 284.652 396.208 284.674 396.316 284.674Z" fill="black"/>
<path opacity="0.1" d="M411.484 279.872C410.837 279.885 410.218 280.137 409.744 280.579C409.271 281.021 408.977 281.621 408.919 282.266C408.891 282.575 408.929 282.886 409.029 283.179C409.129 283.472 409.29 283.741 409.501 283.968C409.712 284.195 409.968 284.375 410.253 284.497C410.538 284.618 410.846 284.679 411.155 284.674C411.803 284.657 412.421 284.402 412.891 283.957C413.362 283.513 413.653 282.911 413.708 282.266C413.735 281.959 413.698 281.65 413.599 281.358C413.499 281.067 413.339 280.799 413.13 280.574C412.92 280.348 412.665 280.169 412.382 280.048C412.098 279.927 411.792 279.867 411.484 279.872ZM411.195 283.963C410.977 283.966 410.761 283.923 410.561 283.837C410.361 283.751 410.182 283.624 410.034 283.464C409.886 283.304 409.774 283.114 409.704 282.908C409.635 282.702 409.609 282.483 409.629 282.266C409.666 281.811 409.87 281.386 410.204 281.075C410.537 280.763 410.975 280.587 411.432 280.582C411.649 280.578 411.866 280.619 412.066 280.704C412.267 280.788 412.447 280.914 412.596 281.073C412.745 281.231 412.859 281.42 412.93 281.625C413.002 281.831 413.029 282.049 413.01 282.266C412.974 282.725 412.768 283.153 412.432 283.467C412.096 283.781 411.655 283.958 411.195 283.963Z" fill="black"/>
<path opacity="0.1" d="M343.851 268.216C342.955 268.233 342.096 268.571 341.427 269.167C340.759 269.763 340.326 270.578 340.207 271.466L338.194 288.568H370.044L370.425 271.466C370.44 271.04 370.367 270.615 370.212 270.218C370.057 269.821 369.823 269.459 369.524 269.155C369.225 268.851 368.868 268.611 368.473 268.45C368.078 268.288 367.655 268.209 367.229 268.216H343.851ZM348.113 280.583C348.257 278.809 349.056 277.153 350.355 275.937C351.654 274.72 353.359 274.032 355.138 274.005C355.984 273.992 356.824 274.158 357.602 274.49C358.38 274.823 359.079 275.315 359.655 275.935C360.23 276.555 360.669 277.289 360.942 278.09C361.216 278.891 361.318 279.74 361.243 280.583C361.102 282.357 360.303 284.015 359.004 285.232C357.704 286.449 355.998 287.137 354.217 287.161C353.371 287.173 352.532 287.008 351.754 286.675C350.976 286.343 350.277 285.85 349.701 285.23C349.126 284.61 348.687 283.876 348.413 283.075C348.14 282.275 348.038 281.425 348.113 280.583Z" fill="black"/>
<path d="M342.391 320.194H377.28L374.938 271.518C374.897 270.642 374.52 269.815 373.886 269.21C373.251 268.605 372.407 268.268 371.531 268.269H348.14C347.264 268.271 346.422 268.609 345.788 269.214C345.154 269.818 344.776 270.643 344.732 271.518L342.391 320.194ZM353.27 280.582C353.27 279.281 353.656 278.01 354.379 276.928C355.102 275.846 356.129 275.003 357.331 274.505C358.533 274.007 359.856 273.877 361.132 274.131C362.408 274.385 363.58 275.011 364.499 275.931C365.419 276.851 366.046 278.023 366.3 279.299C366.554 280.575 366.423 281.898 365.925 283.1C365.427 284.301 364.584 285.329 363.503 286.052C362.421 286.774 361.149 287.16 359.848 287.16C358.104 287.16 356.431 286.467 355.197 285.234C353.963 284 353.27 282.327 353.27 280.582Z" fill="#407BFF"/>
<path opacity="0.7" d="M342.391 320.194H377.28L374.938 271.518C374.897 270.642 374.52 269.815 373.886 269.21C373.251 268.605 372.407 268.268 371.531 268.269H348.14C347.264 268.271 346.422 268.609 345.788 269.214C345.154 269.818 344.776 270.643 344.732 271.518L342.391 320.194ZM353.27 280.582C353.27 279.281 353.656 278.01 354.379 276.928C355.102 275.846 356.129 275.003 357.331 274.505C358.533 274.007 359.856 273.877 361.132 274.131C362.408 274.385 363.58 275.011 364.499 275.931C365.419 276.851 366.046 278.023 366.3 279.299C366.554 280.575 366.423 281.898 365.925 283.1C365.427 284.301 364.584 285.329 363.503 286.052C362.421 286.774 361.149 287.16 359.848 287.16C358.104 287.16 356.431 286.467 355.197 285.234C353.963 284 353.27 282.327 353.27 280.582Z" fill="white"/>
<path d="M416.563 311.051L406.564 296.066L407.538 295.843L417.97 310.735L416.563 311.051Z" fill="#407BFF"/>
<path d="M457.556 310.998L467.567 296.014L466.594 295.79L456.148 310.682L457.556 310.998Z" fill="#407BFF"/>
<path d="M435.52 308.604H437.27L436.796 284.95H435.98L435.52 308.604Z" fill="#407BFF"/>
<path d="M457.24 310.946L456.674 311.998H455.503L456.503 310.762L457.24 310.946Z" fill="#263238"/>
<path d="M416.852 310.946L417.418 311.998H418.588L417.576 310.762L416.852 310.946Z" fill="#263238"/>
<path d="M435.757 308.594L435.749 310.489L436.999 310.494L437.007 308.6L435.757 308.594Z" fill="#263238"/>
<path d="M451.307 320.352H456.253V317.274H451.307V320.352Z" fill="#407BFF"/>
<path d="M417.733 320.352H422.68V317.274H417.733V320.352Z" fill="#407BFF"/>
<path d="M415.997 318.655L426.745 319.826C433.57 320.563 440.455 320.563 447.281 319.826L458.029 318.655V311.985L449.294 310.841C441.14 309.788 432.886 309.788 424.732 310.841L415.997 311.985V318.655Z" fill="#407BFF"/>
<path d="M415.997 318.655L426.745 319.826C433.57 320.563 440.455 320.563 447.281 319.826L458.029 318.655V311.985L449.294 310.841C441.14 309.788 432.886 309.788 424.732 310.841L415.997 311.985V318.655Z" fill="#263238"/>
<path d="M451.78 315.485C451.78 315.88 451.898 316.267 452.117 316.595C452.337 316.924 452.649 317.181 453.015 317.332C453.38 317.483 453.782 317.523 454.17 317.446C454.558 317.369 454.914 317.178 455.194 316.898C455.474 316.619 455.664 316.263 455.741 315.875C455.818 315.487 455.779 315.085 455.628 314.719C455.476 314.354 455.22 314.042 454.891 313.822C454.562 313.602 454.176 313.485 453.78 313.485C453.25 313.485 452.741 313.696 452.366 314.071C451.991 314.446 451.78 314.954 451.78 315.485Z" fill="white"/>
<path d="M453.78 316.695C454.441 316.695 454.977 316.159 454.977 315.497C454.977 314.836 454.441 314.3 453.78 314.3C453.119 314.3 452.583 314.836 452.583 315.497C452.583 316.159 453.119 316.695 453.78 316.695Z" fill="#407BFF"/>
<path d="M442.492 315.498C442.496 315.664 442.563 315.823 442.681 315.94C442.799 316.058 442.957 316.126 443.124 316.129C443.298 316.129 443.466 316.06 443.589 315.936C443.712 315.813 443.782 315.646 443.782 315.471C443.782 315.297 443.712 315.129 443.589 315.006C443.466 314.883 443.298 314.813 443.124 314.813C443.037 314.815 442.951 314.834 442.872 314.87C442.792 314.906 442.721 314.957 442.662 315.021C442.603 315.085 442.558 315.16 442.529 315.242C442.499 315.324 442.487 315.411 442.492 315.498Z" fill="white"/>
<path d="M440.256 315.498C440.256 315.665 440.322 315.826 440.441 315.944C440.559 316.063 440.72 316.129 440.887 316.129C441.062 316.129 441.229 316.06 441.352 315.936C441.476 315.813 441.545 315.646 441.545 315.471C441.545 315.297 441.476 315.129 441.352 315.006C441.229 314.883 441.062 314.813 440.887 314.813C440.8 314.813 440.713 314.831 440.633 314.866C440.553 314.901 440.481 314.952 440.421 315.017C440.362 315.081 440.316 315.157 440.288 315.24C440.259 315.323 440.249 315.41 440.256 315.498Z" fill="white"/>
<path d="M438.006 315.498C438.006 315.581 438.023 315.663 438.054 315.739C438.086 315.816 438.133 315.885 438.191 315.944C438.25 316.003 438.32 316.049 438.396 316.081C438.473 316.113 438.555 316.129 438.638 316.129C438.812 316.129 438.98 316.06 439.103 315.936C439.226 315.813 439.296 315.646 439.296 315.471C439.296 315.297 439.226 315.129 439.103 315.006C438.98 314.883 438.812 314.813 438.638 314.813C438.55 314.813 438.464 314.831 438.383 314.866C438.303 314.901 438.231 314.952 438.172 315.017C438.112 315.081 438.067 315.157 438.038 315.24C438.01 315.323 437.999 315.41 438.006 315.498Z" fill="white"/>
<path d="M435.757 315.498C435.76 315.664 435.828 315.823 435.945 315.94C436.063 316.058 436.222 316.126 436.388 316.129C436.563 316.129 436.73 316.06 436.853 315.936C436.977 315.813 437.046 315.646 437.046 315.471C437.046 315.297 436.977 315.129 436.853 315.006C436.73 314.883 436.563 314.813 436.388 314.813C436.301 314.815 436.215 314.834 436.136 314.87C436.057 314.906 435.985 314.957 435.926 315.021C435.867 315.085 435.822 315.16 435.793 315.242C435.764 315.324 435.751 315.411 435.757 315.498Z" fill="white"/>
<path d="M433.52 315.497C433.52 315.622 433.557 315.744 433.627 315.848C433.696 315.952 433.795 316.033 433.91 316.081C434.025 316.128 434.152 316.141 434.275 316.117C434.397 316.092 434.51 316.032 434.598 315.944C434.687 315.855 434.747 315.743 434.771 315.62C434.795 315.498 434.783 315.371 434.735 315.256C434.687 315.14 434.606 315.042 434.503 314.972C434.399 314.903 434.277 314.866 434.152 314.866C433.984 314.866 433.824 314.932 433.705 315.051C433.587 315.169 433.52 315.33 433.52 315.497Z" fill="white"/>
<path d="M431.271 315.498C431.271 315.665 431.337 315.826 431.456 315.944C431.574 316.063 431.735 316.129 431.902 316.129C432.077 316.129 432.244 316.06 432.367 315.936C432.491 315.813 432.56 315.646 432.56 315.471C432.56 315.297 432.491 315.129 432.367 315.006C432.244 314.883 432.077 314.813 431.902 314.813C431.815 314.813 431.728 314.831 431.648 314.866C431.567 314.901 431.495 314.952 431.436 315.017C431.376 315.081 431.331 315.157 431.303 315.24C431.274 315.323 431.263 315.41 431.271 315.498Z" fill="white"/>
<path d="M429.021 315.498C429.024 315.664 429.092 315.823 429.21 315.94C429.327 316.058 429.486 316.126 429.652 316.129C429.827 316.129 429.994 316.06 430.117 315.936C430.241 315.813 430.31 315.646 430.31 315.471C430.31 315.297 430.241 315.129 430.117 315.006C429.994 314.883 429.827 314.813 429.652 314.813C429.565 314.815 429.48 314.834 429.4 314.87C429.321 314.906 429.25 314.957 429.191 315.021C429.132 315.085 429.086 315.16 429.057 315.242C429.028 315.324 429.016 315.411 429.021 315.498Z" fill="white"/>
<path d="M105.384 21.1791C198.132 -73.542 130.191 197.405 42.2366 171.154C-45.7181 144.903 131.702 33.8871 221.019 125.109C310.336 216.331 266.321 167.204 295.349 194.176" stroke="#8091B1" stroke-width="1.31557" stroke-dasharray="10.52 10.52"/>
<path d="M94.4826 36.4264L82.5243 48.9011" stroke="#407BFF" stroke-width="5.04302" stroke-linecap="round" stroke-linejoin="round"/>
<path d="M85.4789 18.7709C84.42 16.758 81.4454 17.0655 80.8233 19.2552L69.4013 59.368C69.2757 59.8089 69.2726 60.2757 69.3924 60.7181C69.5123 61.1606 69.7505 61.562 70.0814 61.8792C70.4123 62.1965 70.8234 62.4175 71.2706 62.5185C71.7177 62.6195 72.1839 62.5968 72.6191 62.4526L112.216 49.3458C114.375 48.6318 114.559 45.6494 112.501 44.674L95.4318 36.5858C94.939 36.3522 94.5353 35.9652 94.2811 35.4827L85.4789 18.7709V18.7709Z" stroke="#407BFF" stroke-width="5.04302" stroke-linecap="round" stroke-linejoin="round"/>
<path d="M335.964 170.873L327.413 179.424L323.137 175.149" stroke="#407BFF" stroke-width="5.04302" stroke-linecap="round" stroke-linejoin="round"/>
<path d="M342.377 187.976H316.723C316.157 187.976 315.613 187.75 315.212 187.349C314.811 186.948 314.586 186.405 314.586 185.838V151.633C314.586 151.066 314.811 150.522 315.212 150.121C315.613 149.72 316.157 149.495 316.723 149.495H332.892C333.186 149.495 333.478 149.556 333.748 149.673C334.018 149.791 334.261 149.963 334.461 150.179L343.946 160.424C344.312 160.819 344.515 161.338 344.515 161.877V185.838C344.515 186.405 344.29 186.948 343.889 187.349C343.488 187.75 342.944 187.976 342.377 187.976Z" stroke="#407BFF" stroke-width="5.04302" stroke-linecap="round" stroke-linejoin="round"/>
<path d="M344.515 162.322H333.826C333.259 162.322 332.715 162.097 332.314 161.696C331.913 161.295 331.688 160.751 331.688 160.184V149.495" stroke="#407BFF" stroke-width="5.04302" stroke-linecap="round" stroke-linejoin="round"/>
<path d="M357.849 43.892C357.799 45.8611 358.137 47.8208 358.844 49.6592C359.551 51.4976 360.613 53.1788 361.97 54.6067C363.327 56.0346 364.951 57.1813 366.751 57.9813C368.551 58.7813 370.491 59.2189 372.46 59.2692C374.429 59.3195 376.389 58.9814 378.227 58.2743C380.066 57.5673 381.747 56.505 383.175 55.1482C384.603 53.7914 385.75 52.1667 386.55 50.3667C387.35 48.5668 387.787 46.6269 387.837 44.6578C387.939 40.6811 386.457 36.8269 383.716 33.9431C380.976 31.0594 377.203 29.3822 373.226 29.2807C369.249 29.1791 365.395 30.6615 362.511 33.4016C359.628 36.1418 357.95 39.9153 357.849 43.892V43.892Z" stroke="#407BFF" stroke-width="5.04302" stroke-linecap="round" stroke-linejoin="round"/>
<path d="M361.859 54.7124L348.679 67.2364" stroke="#407BFF" stroke-width="5.04302" stroke-linecap="round" stroke-linejoin="round"/>
</svg>
