<svg width="1920" height="530" viewBox="0 0 1920 530" fill="none" xmlns="http://www.w3.org/2000/svg">
<path opacity="0.5" fill-rule="evenodd" clip-rule="evenodd" d="M2847.03 94.2352L2727.21 119.132C2607.39 144.029 2367.75 193.823 2127.32 172.941C1886.89 152.059 1645.68 60.4998 1405.34 47.4704C1165 34.441 925.535 99.9409 685.457 110.47C445.38 121 204.69 76.5585 84.3447 54.3379L-35.9999 32.1173L-32.8494 314.823L87.2327 313.485C207.315 312.146 447.48 309.47 687.645 306.794C927.81 304.117 1167.97 301.441 1408.14 298.764C1648.3 296.088 1888.47 293.411 2128.63 290.735C2368.8 288.058 2608.96 285.382 2729.05 284.044L2849.13 282.706L2847.03 94.2352Z" fill="url(#paint0_linear_290_8)"/>
<path opacity="0.5" fill-rule="evenodd" clip-rule="evenodd" d="M2847.03 120.235L2727.21 145.132C2607.39 170.029 2367.75 219.823 2127.32 198.941C1886.89 178.059 1645.68 86.4998 1405.34 73.4704C1165 60.441 925.535 125.941 685.457 136.47C445.38 147 204.69 102.559 84.3447 80.3379L-35.9999 58.1173L-32.8494 340.823L87.2327 339.485C207.315 338.146 447.48 335.47 687.645 332.794C927.81 330.117 1167.97 327.441 1408.14 324.764C1648.3 322.088 1888.47 319.411 2128.63 316.735C2368.8 314.058 2608.96 311.382 2729.05 310.044L2849.13 308.706L2847.03 120.235Z" fill="url(#paint1_linear_290_8)"/>
<path opacity="0.5" fill-rule="evenodd" clip-rule="evenodd" d="M2009.03 215.235L1889.21 240.132C1769.39 265.029 1529.75 314.823 1289.32 293.941C1048.89 273.059 807.679 181.5 567.339 168.47C326.999 155.441 87.5345 220.941 -152.543 231.47C-392.62 242 -633.31 197.559 -753.655 175.338L-874 153.117L-870.849 435.823L-750.767 434.485C-630.685 433.146 -390.52 430.47 -150.355 427.794C89.8099 425.117 329.975 422.441 570.14 419.764C810.304 417.088 1050.47 414.411 1290.63 411.735C1530.8 409.058 1770.96 406.382 1891.05 405.044L2011.13 403.706L2009.03 215.235Z" fill="url(#paint2_linear_290_8)"/>
<path opacity="0.5" fill-rule="evenodd" clip-rule="evenodd" d="M2009.03 241.235L1889.21 266.132C1769.39 291.029 1529.75 340.823 1289.32 319.941C1048.89 299.059 807.679 207.5 567.339 194.47C326.999 181.441 87.5345 246.941 -152.543 257.47C-392.62 268 -633.31 223.559 -753.655 201.338L-874 179.117L-870.849 461.823L-750.767 460.485C-630.685 459.146 -390.52 456.47 -150.355 453.794C89.8099 451.117 329.975 448.441 570.14 445.764C810.304 443.088 1050.47 440.411 1290.63 437.735C1530.8 435.058 1770.96 432.382 1891.05 431.044L2011.13 429.706L2009.03 241.235Z" fill="url(#paint3_linear_290_8)"/>
<path opacity="0.4" fill-rule="evenodd" clip-rule="evenodd" d="M-244.512 359.697L-139.269 364.332C-34.0254 368.967 176.455 377.657 387.058 397.38C597.668 417.684 808.394 448.44 1018.87 457.13C1229.36 466.4 1439.59 452.441 1649.76 433.837C1859.93 414.652 2070.04 389.659 2175.09 377.453L2280.15 365.248L2278.29 198L2173.11 199.172C2067.93 200.344 1857.57 202.688 1647.21 205.033C1436.86 207.377 1226.5 209.721 1016.14 212.066C805.786 214.41 595.428 216.754 385.071 219.098C174.714 221.443 -35.6433 223.787 -140.822 224.959L-246.001 226.131L-244.512 359.697Z" fill="url(#paint4_linear_290_8)"/>
<path opacity="0.4" fill-rule="evenodd" clip-rule="evenodd" d="M-244.512 385.697L-139.269 390.332C-34.0255 394.967 176.455 403.657 387.058 423.38C597.668 443.684 808.394 474.44 1018.87 483.13C1229.36 492.4 1439.59 478.441 1649.76 459.837C1859.93 440.652 2070.04 415.659 2175.09 403.453L2280.15 391.248L2278.29 224L2173.11 225.172C2067.93 226.344 1857.57 228.688 1647.21 231.033C1436.86 233.377 1226.5 235.721 1016.14 238.066C805.786 240.41 595.428 242.754 385.071 245.098C174.714 247.443 -35.6434 249.787 -140.822 250.959L-246.001 252.131L-244.512 385.697Z" fill="url(#paint5_linear_290_8)"/>
<path opacity="0.4" fill-rule="evenodd" clip-rule="evenodd" d="M-302.061 267.397L-195.318 260.65C-88.5747 253.903 124.916 240.999 338.318 216.892C551.714 192.196 765.027 156.886 978.518 143.982C1192 130.488 1405.68 140.579 1619.39 155.387C1833.11 170.784 2046.87 192.078 2153.75 202.43L2260.63 212.782L2261.98 382.592L2155.19 383.442C2048.4 384.293 1834.82 385.995 1621.24 387.696C1407.66 389.398 1194.08 391.099 980.5 392.801C766.92 394.502 553.34 396.203 339.76 397.905C126.18 399.606 -87.4004 401.308 -194.19 402.159L-300.98 403.009L-302.061 267.397Z" fill="url(#paint6_linear_290_8)"/>
<path opacity="0.4" fill-rule="evenodd" clip-rule="evenodd" d="M-302.061 293.397L-195.318 286.65C-88.5747 279.903 124.916 266.999 338.318 242.892C551.714 218.196 765.027 182.886 978.518 169.982C1192 156.488 1405.68 166.579 1619.39 181.387C1833.11 196.784 2046.87 218.078 2153.75 228.43L2260.63 238.782L2261.98 408.592L2155.19 409.442C2048.4 410.293 1834.82 411.995 1621.24 413.696C1407.66 415.398 1194.08 417.099 980.5 418.801C766.92 420.502 553.34 422.203 339.76 423.905C126.18 425.606 -87.4004 427.308 -194.19 428.159L-300.98 429.009L-302.061 293.397Z" fill="url(#paint7_linear_290_8)"/>
<path opacity="0.4" fill-rule="evenodd" clip-rule="evenodd" d="M2294.45 387.762L2189.27 393.562C2084.08 399.361 1873.71 410.38 1663.34 432.433C1452.97 455.067 1242.59 488.155 1032.22 499.173C821.851 510.773 611.482 499.142 401.113 482.865C190.743 466.008 -19.6252 443.342 -124.809 432.3L-229.994 421.258L-229.982 254L-124.796 254.008C-19.6112 254.016 190.759 254.031 401.13 254.047C611.5 254.062 821.87 254.078 1032.24 254.094C1242.61 254.109 1452.98 254.125 1663.35 254.141C1873.72 254.156 2084.09 254.172 2189.28 254.18L2294.46 254.188L2294.45 387.762Z" fill="url(#paint8_linear_290_8)"/>
<path opacity="0.4" fill-rule="evenodd" clip-rule="evenodd" d="M2294.45 413.762L2189.27 419.562C2084.08 425.361 1873.71 436.38 1663.34 458.433C1452.97 481.067 1242.59 514.155 1032.22 525.173C821.851 536.773 611.482 525.142 401.113 508.865C190.743 492.008 -19.6252 469.342 -124.809 458.3L-229.994 447.258L-229.982 280L-124.796 280.008C-19.6112 280.016 190.759 280.031 401.13 280.047C611.5 280.062 821.87 280.078 1032.24 280.094C1242.61 280.109 1452.98 280.125 1663.35 280.141C1873.72 280.156 2084.09 280.172 2189.28 280.18L2294.46 280.188L2294.45 413.762Z" fill="url(#paint9_linear_290_8)"/>
<defs>
<linearGradient id="paint0_linear_290_8" x1="1404.99" y1="16.0587" x2="1408.14" y2="298.764" gradientUnits="userSpaceOnUse">
<stop stop-color="#6C91F6"/>
<stop offset="1" stop-color="#1C2436" stop-opacity="0"/>
</linearGradient>
<linearGradient id="paint1_linear_290_8" x1="1404.99" y1="42.0587" x2="1408.14" y2="324.764" gradientUnits="userSpaceOnUse">
<stop stop-color="#6C91F6"/>
<stop offset="1" stop-color="#1C2436" stop-opacity="0"/>
</linearGradient>
<linearGradient id="paint2_linear_290_8" x1="566.989" y1="137.059" x2="570.14" y2="419.764" gradientUnits="userSpaceOnUse">
<stop stop-color="#6C91F6"/>
<stop offset="1" stop-color="#1C2436" stop-opacity="0"/>
</linearGradient>
<linearGradient id="paint3_linear_290_8" x1="566.989" y1="163.059" x2="570.14" y2="445.764" gradientUnits="userSpaceOnUse">
<stop stop-color="#6C91F6"/>
<stop offset="1" stop-color="#1C2436" stop-opacity="0"/>
</linearGradient>
<linearGradient id="paint4_linear_290_8" x1="1018" y1="326.5" x2="1016.14" y2="212.066" gradientUnits="userSpaceOnUse">
<stop stop-color="#6C91F6"/>
<stop offset="1" stop-color="#1C2436" stop-opacity="0"/>
</linearGradient>
<linearGradient id="paint5_linear_290_8" x1="1018" y1="352.5" x2="1016.14" y2="238.066" gradientUnits="userSpaceOnUse">
<stop stop-color="#6C91F6"/>
<stop offset="1" stop-color="#1C2436" stop-opacity="0"/>
</linearGradient>
<linearGradient id="paint6_linear_290_8" x1="978.48" y1="139.209" x2="980.5" y2="392.801" gradientUnits="userSpaceOnUse">
<stop stop-color="#6C91F6"/>
<stop offset="1" stop-color="#1C2436" stop-opacity="0"/>
</linearGradient>
<linearGradient id="paint7_linear_290_8" x1="978.479" y1="165.209" x2="980.5" y2="418.801" gradientUnits="userSpaceOnUse">
<stop stop-color="#6C91F6"/>
<stop offset="1" stop-color="#1C2436" stop-opacity="0"/>
</linearGradient>
<linearGradient id="paint8_linear_290_8" x1="1032.22" y1="503.874" x2="1032.24" y2="254.094" gradientUnits="userSpaceOnUse">
<stop stop-color="#6C91F6"/>
<stop offset="1" stop-color="#1C2436" stop-opacity="0"/>
</linearGradient>
<linearGradient id="paint9_linear_290_8" x1="1032.22" y1="529.874" x2="1032.24" y2="280.094" gradientUnits="userSpaceOnUse">
<stop stop-color="#6C91F6"/>
<stop offset="1" stop-color="#1C2436" stop-opacity="0"/>
</linearGradient>
</defs>
</svg>
