<svg width="43" height="33" viewBox="0 0 43 33" fill="none" xmlns="http://www.w3.org/2000/svg">
<path d="M40.3333 25H2V28.8333C2 29.3417 2.20193 29.8292 2.56138 30.1886C2.92082 30.5481 3.40834 30.75 3.91667 30.75H38.4167C38.925 30.75 39.4125 30.5481 39.772 30.1886C40.1314 29.8292 40.3333 29.3417 40.3333 28.8333V25Z" stroke="#6C91F6" stroke-width="3.83333" stroke-linecap="round" stroke-linejoin="round"/>
<path d="M34.5834 2H7.75004C7.24171 2 6.7542 2.20193 6.39475 2.56138C6.03531 2.92082 5.83337 3.40834 5.83337 3.91667V23.0833C5.83337 23.5917 6.03531 24.0792 6.39475 24.4386C6.7542 24.7981 7.24171 25 7.75004 25H34.5834C35.0917 25 35.5792 24.7981 35.9387 24.4386C36.2981 24.0792 36.5 23.5917 36.5 23.0833V3.91667C36.5 3.40834 36.2981 2.92082 35.9387 2.56138C35.5792 2.20193 35.0917 2 34.5834 2Z" stroke="#6C91F6" stroke-width="3.83333" stroke-linecap="round" stroke-linejoin="round"/>
</svg>
