<svg width="31" height="39" viewBox="0 0 31 39" fill="none" xmlns="http://www.w3.org/2000/svg">
<path d="M15.4166 17.3334C16.4332 17.3334 17.4083 16.9295 18.1272 16.2107C18.846 15.4918 19.2499 14.5167 19.2499 13.5001C19.2499 12.4834 18.846 11.5084 18.1272 10.7895C17.4083 10.0706 16.4332 9.66675 15.4166 9.66675C14.3999 9.66675 13.4249 10.0706 12.706 10.7895C11.9871 11.5084 11.5833 12.4834 11.5833 13.5001C11.5833 14.5167 11.9871 15.4918 12.706 16.2107C13.4249 16.9295 14.3999 17.3334 15.4166 17.3334Z" stroke="#6C91F6" stroke-width="3.83333" stroke-linecap="round" stroke-linejoin="round"/>
<path d="M15.4167 36.5C15.4167 36.5 28.8333 27.2118 28.8333 15.2691C28.8317 13.5231 28.4835 11.7948 27.809 10.1843C27.1346 8.57378 26.1472 7.11315 24.9042 5.887C22.3763 3.3935 18.9674 1.99689 15.4167 2.00001C11.8659 1.99689 8.45705 3.3935 5.92917 5.887C4.68613 7.11315 3.69877 8.57378 3.02431 10.1843C2.34984 11.7948 2.00168 13.5231 2 15.2691C2 27.2099 15.4167 36.5 15.4167 36.5Z" stroke="#6C91F6" stroke-width="3.83333" stroke-linecap="round" stroke-linejoin="round"/>
</svg>
