<svg width="75" height="50" viewBox="0 0 75 50" fill="none" xmlns="http://www.w3.org/2000/svg">
<path d="M13.9067 15.7705C13.9218 23.9347 18.066 29.0166 26.1159 31.9425L26.1028 24.849C26.2263 19.2276 32.6377 12.2561 38.393 12.3793L74.2617 12.3131C71.0152 3.94239 66.3425 0.0145636 59.5167 0.0271658L29.8046 0.0820226C20.8374 0.0985785 13.8944 9.07325 13.9067 15.7705Z" fill="#1C2436"/>
<path d="M60.391 34.1943C60.3759 26.0302 56.2317 20.9482 48.1818 18.0224L48.1949 25.1158C48.0715 30.7373 41.6601 37.7087 35.9048 37.5855L0.036077 37.6517C3.28257 46.0225 7.95528 49.9503 14.781 49.9377L44.4932 49.8828C53.4603 49.8663 60.4034 40.8916 60.391 34.1943Z" fill="#6C91F6"/>
</svg>
